<?xml version="1.0" standalone="no"?>
<!DOCTYPE svg PUBLIC "-//W3C//DTD SVG 1.1//EN" "http://www.w3.org/Graphics/SVG/1.1/DTD/svg11.dtd" >
<svg>
<metadata>
Created by FontForge 20110222 at Wed Jun 17 11:44:40 2015
 By www-data
Copyright (C) 2004, 2012 Hoefler &#38; Frere-Jones. http://www.typography.com
</metadata>
<defs>
<font id="Tungsten-Book" horiz-adv-x="331" >
  <font-face 
    font-family="Tungsten Book"
    font-weight="326"
    font-stretch="normal"
    units-per-em="1000"
    panose-1="0 0 0 0 0 0 0 0 0 0"
    ascent="800"
    descent="-200"
    x-height="537"
    cap-height="700"
    bbox="-17 -200 644 862"
    underline-thickness="50"
    underline-position="-50"
    stemh="59"
    stemv="56"
    unicode-range="U+0020-FB04"
  />
<missing-glyph horiz-adv-x="500" 
d="M0 -200v1000h500v-1000h-500zM71 750l179 -390l179 390h-358zM50 -76l172 376l-172 376v-752zM450 676l-172 -376l172 -376v752zM250 240l-179 -390h358z" />
    <glyph glyph-name=".notdef" horiz-adv-x="500" 
d="M0 -200v1000h500v-1000h-500zM71 750l179 -390l179 390h-358zM50 -76l172 376l-172 376v-752zM450 676l-172 -376l172 -376v752zM250 240l-179 -390h358z" />
    <glyph glyph-name="A" unicode="A" horiz-adv-x="352" 
d="M212 702l117 -702h-58l-21 132h-149l-20 -132h-58l117 702h72zM175 603l-65 -415h131z" />
    <glyph glyph-name="B" unicode="B" horiz-adv-x="351" 
d="M243 358c42 -15 67 -48 67 -111v-125c0 -81 -41 -122 -123 -122h-141v700h139c83 0 123 -41 123 -122v-111c0 -63 -24 -95 -65 -109zM249 581c0 43 -21 64 -65 64h-79v-261h69c50 0 75 24 75 72v125zM105 330v-275h81c43 0 65 21 65 64v138c0 49 -26 73 -75 73h-71z" />
    <glyph glyph-name="C" unicode="C" horiz-adv-x="352" 
d="M256 265h59v-148c0 -81 -41 -123 -123 -123h-27c-82 0 -123 42 -123 123v467c0 80 41 122 123 122h27c81 0 121 -41 121 -121v-129h-59v130c0 43 -21 64 -65 64h-22c-44 0 -65 -21 -65 -64v-472c0 -43 21 -64 65 -64h24c44 0 65 21 65 64v151z" />
    <glyph glyph-name="D" unicode="D" horiz-adv-x="360" 
d="M46 0v700h123c100 0 149 -49 149 -149v-402c0 -100 -49 -149 -149 -149h-123zM106 644v-588h60c62 0 92 30 92 93v402c0 63 -30 93 -92 93h-60z" />
    <glyph glyph-name="E" unicode="E" horiz-adv-x="293" 
d="M46 700h211v-56h-151v-259h146v-56h-146v-273h153v-56h-213v700z" />
    <glyph glyph-name="F" unicode="F" horiz-adv-x="280" 
d="M46 700h206v-56h-146v-260h141v-56h-141v-328h-60v700z" />
    <glyph glyph-name="G" unicode="G" horiz-adv-x="359" 
d="M259 309h-79v56h138v-248c0 -81 -41 -123 -122 -123h-31c-82 0 -123 42 -123 123v467c0 80 41 122 123 122h31c81 0 121 -42 121 -121v-103h-59v104c0 43 -21 64 -65 64h-26c-44 0 -65 -21 -65 -64v-472c0 -43 21 -64 65 -64h28c43 0 64 21 64 64v195z" />
    <glyph glyph-name="H" unicode="H" horiz-adv-x="366" 
d="M106 385h154v315h60v-700h-60v329h-154v-329h-60v700h60v-315z" />
    <glyph glyph-name="I" unicode="I" horiz-adv-x="154" 
d="M107 700v-700h-60v700h60z" />
    <glyph glyph-name="J" unicode="J" horiz-adv-x="226" 
d="M182 700v-574c0 -85 -39 -126 -125 -126h-36v56h33c48 0 67 21 67 70v574h61z" />
    <glyph glyph-name="K" unicode="K" horiz-adv-x="335" 
d="M322 0h-66l-150 345v-345h-60v700h60v-341l156 341h64l-161 -344z" />
    <glyph glyph-name="L" unicode="L" horiz-adv-x="270" 
d="M46 700h60v-644h143v-56h-203v700z" />
    <glyph glyph-name="M" unicode="M" horiz-adv-x="497" 
d="M218 0l-118 595l3 -455v-140h-57v700h88l115 -594l115 594h87v-700h-59v142l2 453l-117 -595h-59z" />
    <glyph glyph-name="N" unicode="N" horiz-adv-x="375" 
d="M330 0h-71l-158 577l2 -276v-301h-57v700h76l152 -561l-1 266v295h57v-700z" />
    <glyph glyph-name="O" unicode="O" horiz-adv-x="362" 
d="M320 117c0 -81 -41 -123 -123 -123h-32c-82 0 -123 42 -123 123v467c0 80 41 122 123 122h32c82 0 123 -42 123 -122v-467zM260 586c0 43 -21 64 -65 64h-28c-44 0 -65 -21 -65 -64v-472c0 -43 21 -64 65 -64h28c44 0 65 21 65 64v472z" />
    <glyph glyph-name="P" unicode="P" horiz-adv-x="329" 
d="M106 272v-272h-60v700h127c82 0 126 -41 126 -122v-180c0 -84 -43 -126 -127 -126h-66zM239 581c0 43 -24 63 -68 63h-65v-317h64c46 0 69 23 69 68v186z" />
    <glyph glyph-name="Q" unicode="Q" horiz-adv-x="362" 
d="M320 584v-459c0 -61 -24 -100 -71 -115l86 -38l-31 -48l-115 70h-24c-82 0 -123 42 -123 123v467c0 80 41 122 123 122h32c82 0 123 -42 123 -122zM260 114v472c0 43 -21 64 -65 64h-28c-44 0 -65 -21 -65 -64v-472c0 -43 21 -64 65 -64h28c44 0 65 21 65 64z" />
    <glyph glyph-name="Q.alt" horiz-adv-x="362" 
d="M320 584v-467c0 -19 -2 -35 -6 -49l41 -30l-36 -46l-32 31c-21 -19 -51 -29 -90 -29h-32c-82 0 -123 42 -123 123v467c0 80 41 122 123 122h32c82 0 123 -42 123 -122zM260 586c0 43 -21 64 -65 64h-28c-44 0 -65 -21 -65 -64v-472c0 -43 21 -64 65 -64h28
c21 0 37 5 47 14l-73 63l28 32l63 -51v478z" />
    <glyph glyph-name="R" unicode="R" horiz-adv-x="354" 
d="M242 334c44 -12 67 -41 67 -99v-235h-60v233c0 50 -24 73 -75 73h-68v-306h-60v700h139c82 0 123 -41 123 -122v-134c0 -65 -25 -95 -66 -110zM248 581c0 43 -21 63 -65 63h-77v-283h69c49 0 73 23 73 72v148z" />
    <glyph glyph-name="S" unicode="S" horiz-adv-x="345" 
d="M244 346c47 -35 63 -67 63 -125v-106c0 -80 -41 -121 -123 -121h-22c-81 0 -122 41 -122 120v144h59v-146c0 -42 22 -62 65 -62h18c43 0 65 20 65 62v107c0 39 -13 56 -40 77l-103 77c-48 35 -63 70 -63 125v87c0 80 40 121 123 121h19c81 0 122 -41 122 -120v-123h-59
v125c0 42 -21 62 -65 62h-15c-44 0 -65 -20 -65 -62v-89c0 -38 13 -56 40 -77z" />
    <glyph glyph-name="T" unicode="T" horiz-adv-x="304" 
d="M182 0h-60v644h-110v56h280v-56h-110v-644z" />
    <glyph glyph-name="U" unicode="U" horiz-adv-x="361" 
d="M317 700v-583c0 -81 -41 -123 -124 -123h-26c-82 0 -123 42 -123 123v583h60v-585c0 -44 22 -65 66 -65h21c44 0 66 21 66 65v585h60z" />
    <glyph glyph-name="V" unicode="V" horiz-adv-x="341" 
d="M202 -2h-64l-116 702h61l87 -581l90 581h58z" />
    <glyph glyph-name="W" unicode="W" horiz-adv-x="537" 
d="M299 700l75 -615l76 615h58l-95 -700h-76l-69 554l-68 -554h-76l-95 700h61l74 -618l76 618h59z" />
    <glyph glyph-name="X" unicode="X" horiz-adv-x="333" 
d="M310 700l-108 -348l110 -352h-61l-85 290l-85 -290h-59l109 350l-107 350h61l82 -289l84 289h59z" />
    <glyph glyph-name="Y" unicode="Y" horiz-adv-x="315" 
d="M303 700l-115 -458v-242h-60v240l-116 460h62l84 -371l86 371h59z" />
    <glyph glyph-name="Z" unicode="Z" horiz-adv-x="283" 
d="M197 644h-167v56h227v-55l-170 -589h173v-56h-234v55z" />
    <glyph glyph-name="a" unicode="a" horiz-adv-x="317" 
d="M34 85v99c0 62 22 88 80 110l106 39v99c0 37 -19 57 -58 57h-7c-39 0 -59 -20 -59 -57v-69h-56v67c0 74 39 113 115 113h8c76 0 114 -39 114 -113v-430h-57v36c-28 -23 -56 -42 -97 -42h-2c-58 0 -87 32 -87 91zM140 49c25 0 48 10 80 31v199l-82 -31
c-35 -14 -46 -30 -46 -65v-87c0 -32 16 -47 47 -47h1z" />
    <glyph glyph-name="a.alt" 
d="M289 537v-537h-57v37c-26 -23 -55 -43 -98 -43h-2c-62 0 -94 38 -94 99v351c0 61 32 99 94 99h2c43 0 72 -19 98 -42v36h57zM232 83v370c-30 24 -54 35 -82 35c-36 0 -55 -15 -55 -50v-339c0 -35 19 -50 55 -50c29 0 53 11 82 34z" />
    <glyph glyph-name="b" unicode="b" 
d="M42 0v710h57v-210c26 23 55 43 98 43h2c62 0 94 -38 94 -99v-351c0 -61 -32 -99 -94 -99h-2c-43 0 -72 20 -98 42v-36h-57zM99 452v-366c28 -24 54 -37 81 -37h2c35 0 54 15 54 50v339c0 35 -19 50 -54 50h-2c-28 0 -52 -12 -81 -36z" />
    <glyph glyph-name="c" unicode="c" horiz-adv-x="324" 
d="M229 343v85c0 41 -20 61 -60 61h-14c-40 0 -60 -20 -60 -61v-319c0 -41 20 -60 60 -60h15c40 0 60 19 60 60v102h57v-100c0 -77 -39 -117 -116 -117h-17c-78 0 -117 40 -117 117v315c0 78 39 117 117 117h17c77 0 115 -39 115 -115v-85h-57z" />
    <glyph glyph-name="d" unicode="d" 
d="M289 710v-710h-57v37c-26 -23 -55 -43 -98 -43h-2c-62 0 -94 38 -94 99v351c0 61 32 99 94 99h2c43 0 72 -19 98 -42v209h57zM232 85v366c-31 27 -54 37 -81 37h-2c-35 0 -54 -15 -54 -50v-339c0 -35 19 -50 54 -50h2c28 0 52 12 81 36z" />
    <glyph glyph-name="e" unicode="e" horiz-adv-x="321" 
d="M285 246h-190v-137c0 -40 20 -60 61 -60h12c40 0 61 20 61 60v62h56v-60c0 -77 -40 -117 -117 -117h-14c-78 0 -117 40 -117 117v315c0 77 39 117 117 117h14c77 0 117 -40 117 -117v-180zM95 428v-127h132v127c0 40 -20 61 -60 61h-11c-41 0 -61 -21 -61 -61z" />
    <glyph glyph-name="f" unicode="f" horiz-adv-x="191" 
d="M58 537v74c0 66 31 99 97 99h31v-54h-29c-28 0 -41 -14 -41 -43v-76h67v-53h-67v-484h-58v484h-35v53h35z" />
    <glyph glyph-name="g" unicode="g" horiz-adv-x="330" 
d="M289 537v-544c0 -72 -35 -107 -110 -107h-36c-70 0 -102 33 -102 99v24h53v-22c0 -32 16 -50 51 -50h36c35 0 50 18 50 50v103c-29 -25 -57 -40 -97 -40h-2c-62 0 -94 37 -94 98v296c0 61 32 99 94 99h2c43 0 72 -18 97 -42v36h58zM231 137v315c-29 24 -52 36 -80 36h-2
c-35 0 -54 -15 -54 -50v-283c0 -36 19 -51 54 -51h2c28 0 52 11 80 33z" />
    <glyph glyph-name="h" unicode="h" 
d="M42 0v710h57v-210c29 24 57 43 99 43h3c60 0 90 -33 90 -92v-451h-57v440c0 33 -17 49 -50 49h-1c-27 0 -51 -10 -84 -34v-455h-57z" />
    <glyph glyph-name="i" unicode="i" horiz-adv-x="146" 
d="M43 601v76h60v-76h-60zM44 0v537h58v-537h-58z" />
    <glyph glyph-name="j" unicode="j" horiz-adv-x="149" 
d="M46 601v76h60v-76h-60zM105 537v-556c0 -62 -26 -93 -88 -93h-11v53h3c28 0 38 14 38 42v554h58z" />
    <glyph glyph-name="k" unicode="k" horiz-adv-x="303" 
d="M234 537h61l-140 -262l137 -275h-64l-129 268v-268h-57v710h57v-433z" />
    <glyph glyph-name="l" unicode="l" horiz-adv-x="146" 
d="M44 0v710h58v-710h-58z" />
    <glyph glyph-name="m" unicode="m" horiz-adv-x="510" 
d="M42 0v537h57v-37c29 24 57 43 97 43h2c38 0 65 -16 78 -46c32 27 63 46 104 46h2c58 0 88 -34 88 -90v-453h-58v442c0 32 -16 47 -47 47h-1c-23 0 -46 -8 -80 -33v-456h-57v442c0 32 -16 47 -46 47h-1c-25 0 -48 -10 -81 -34v-455h-57z" />
    <glyph glyph-name="n" unicode="n" 
d="M42 0v537h57v-37c29 24 57 43 99 43h3c60 0 90 -33 90 -92v-451h-57v440c0 33 -17 49 -50 49h-1c-28 0 -51 -10 -84 -34v-455h-57z" />
    <glyph glyph-name="o" unicode="o" horiz-adv-x="328" 
d="M175 -6h-21c-78 0 -117 40 -117 117v315c0 78 39 117 117 117h21c77 0 116 -39 116 -117v-315c0 -77 -39 -117 -116 -117zM174 489h-19c-40 0 -60 -20 -60 -61v-319c0 -41 20 -60 60 -60h19c40 0 60 19 60 60v319c0 41 -20 61 -60 61z" />
    <glyph glyph-name="p" unicode="p" 
d="M293 93c0 -61 -32 -99 -94 -99h-2c-43 0 -72 20 -98 42v-146h-57v647h57v-37c26 23 55 43 98 43h2c62 0 94 -38 94 -99v-351zM236 438c0 35 -19 50 -54 50h-2c-28 0 -52 -12 -81 -36v-366c29 -25 54 -37 81 -37h2c35 0 54 15 54 50v339z" />
    <glyph glyph-name="q" unicode="q" 
d="M289 537v-647h-57v147c-26 -23 -55 -43 -98 -43h-2c-62 0 -94 38 -94 99v351c0 61 32 99 94 99h2c43 0 72 -19 98 -42v36h57zM232 85v366c-30 25 -54 37 -81 37h-2c-35 0 -54 -15 -54 -50v-339c0 -35 19 -50 54 -50h2c28 0 52 12 81 36z" />
    <glyph glyph-name="r" unicode="r" horiz-adv-x="206" 
d="M42 0v537h57v-54c24 39 50 58 92 59v-65c-40 -3 -67 -14 -92 -39v-438h-57z" />
    <glyph glyph-name="s" unicode="s" horiz-adv-x="316" 
d="M222 353v82c0 36 -18 55 -57 55h-14c-38 0 -57 -19 -57 -55v-49c0 -29 10 -46 34 -61l91 -56c43 -27 61 -54 61 -105v-57c0 -73 -38 -113 -114 -113h-16c-76 0 -113 40 -113 112v82h56v-86c0 -36 19 -54 57 -54h17c38 0 56 18 56 54v55c0 28 -10 46 -34 60l-91 57
c-42 27 -60 53 -60 105v51c0 74 37 113 114 113h14c76 0 112 -39 112 -112v-78h-56z" />
    <glyph glyph-name="t" unicode="t" horiz-adv-x="193" 
d="M118 484v-484h-58v484h-39v53h39v90h58v-90h62v-53h-62z" />
    <glyph glyph-name="u" unicode="u" 
d="M290 537v-537h-58v37c-29 -24 -57 -43 -99 -43h-3c-60 0 -90 33 -90 92v451h58v-440c0 -33 16 -48 49 -48h2c27 0 50 10 83 33v455h58z" />
    <glyph glyph-name="v" unicode="v" horiz-adv-x="311" 
d="M187 -1h-63l-103 538h59l76 -452l76 452h57z" />
    <glyph glyph-name="w" unicode="w" horiz-adv-x="459" 
d="M293 -1l-63 422l-64 -422h-59l-87 538h57l59 -434l66 434h56l66 -433l58 433h55l-85 -538h-59z" />
    <glyph glyph-name="x" unicode="x" horiz-adv-x="290" 
d="M69 0h-58l101 265l-99 272h59l73 -210l74 210h58l-99 -264l101 -273h-59l-76 211z" />
    <glyph glyph-name="y" unicode="y" horiz-adv-x="310" 
d="M160 -110h-56l24 111l-109 536h58l79 -428l79 428h56z" />
    <glyph glyph-name="y.alt" horiz-adv-x="310" 
d="M160 -110h-56l24 111l-109 536h58l79 -428l79 428h56z" />
    <glyph glyph-name="z" unicode="z" horiz-adv-x="252" 
d="M171 484h-148v53h207v-52l-152 -431h153v-54h-211v52z" />
    <glyph glyph-name="Aacute" unicode="&#xc1;" horiz-adv-x="352" 
d="M212 702l117 -702h-58l-21 132h-149l-20 -132h-58l117 702h72zM175 603l-65 -415h131zM157 745l45 82h59l-65 -82h-39z" />
    <glyph glyph-name="aacute" unicode="&#xe1;" horiz-adv-x="317" 
d="M34 85v99c0 62 22 88 80 110l106 39v99c0 37 -19 57 -58 57h-7c-39 0 -59 -20 -59 -57v-69h-56v67c0 74 39 113 115 113h8c76 0 114 -39 114 -113v-430h-57v36c-28 -23 -56 -42 -97 -42h-2c-58 0 -87 32 -87 91zM140 49c25 0 48 10 80 31v199l-82 -31
c-35 -14 -46 -30 -46 -65v-87c0 -32 16 -47 47 -47h1zM144 585l39 102h59l-60 -102h-38z" />
    <glyph glyph-name="aacute.alt" 
d="M153 585l39 102h59l-60 -102h-38zM289 537v-537h-57v37c-26 -23 -55 -43 -98 -43h-2c-62 0 -94 38 -94 99v351c0 61 32 99 94 99h2c43 0 72 -19 98 -42v36h57zM232 83v370c-30 24 -54 35 -82 35c-36 0 -55 -15 -55 -50v-339c0 -35 19 -50 55 -50c29 0 53 11 82 34z" />
    <glyph glyph-name="Abreve" unicode="&#x102;" horiz-adv-x="352" 
d="M212 702l117 -702h-58l-21 132h-149l-20 -132h-58l117 702h72zM175 603l-65 -415h131zM93 810v17h42v-13c0 -24 14 -32 37 -32h10c23 0 36 8 36 32v13h43v-17c0 -46 -26 -68 -76 -68h-16c-50 0 -76 22 -76 68z" />
    <glyph glyph-name="abreve" unicode="&#x103;" horiz-adv-x="317" 
d="M34 85v99c0 62 22 88 80 110l106 39v99c0 37 -19 57 -58 57h-7c-39 0 -59 -20 -59 -57v-69h-56v67c0 74 39 113 115 113h8c76 0 114 -39 114 -113v-430h-57v36c-28 -23 -56 -42 -97 -42h-2c-58 0 -87 32 -87 91zM140 49c25 0 48 10 80 31v199l-82 -31
c-35 -14 -46 -30 -46 -65v-87c0 -32 16 -47 47 -47h1zM83 657v27h43v-27c0 -25 13 -34 36 -34h6c23 0 36 9 36 34v27h43v-27c0 -52 -26 -75 -76 -75h-12c-50 0 -76 23 -76 75z" />
    <glyph glyph-name="abreve.alt" 
d="M289 537v-537h-57v37c-26 -23 -55 -43 -98 -43h-2c-62 0 -94 38 -94 99v351c0 61 32 99 94 99h2c43 0 72 -19 98 -42v36h57zM232 83v370c-30 24 -54 35 -82 35c-36 0 -55 -15 -55 -50v-339c0 -35 19 -50 55 -50c29 0 53 11 82 34zM91 657v27h43v-27c0 -25 13 -34 36 -34
h6c23 0 36 9 36 34v27h43v-27c0 -52 -26 -75 -76 -75h-12c-50 0 -76 23 -76 75z" />
    <glyph glyph-name="Acircumflex" unicode="&#xc2;" horiz-adv-x="352" 
d="M329 0h-58l-21 132h-149l-20 -132h-58l117 702h72zM175 603l-65 -415h131zM204 835l65 -90h-40l-52 52l-52 -52h-40l66 90h53z" />
    <glyph glyph-name="acircumflex" unicode="&#xe2;" horiz-adv-x="317" 
d="M34 85v99c0 62 22 88 80 110l106 39v99c0 37 -19 57 -58 57h-7c-39 0 -59 -20 -59 -57v-69h-56v67c0 74 39 113 115 113h8c76 0 114 -39 114 -113v-430h-57v36c-28 -23 -56 -42 -97 -42h-2c-58 0 -87 32 -87 91zM140 49c25 0 48 10 80 31v199l-82 -31
c-35 -14 -46 -30 -46 -65v-87c0 -32 16 -47 47 -47h1zM192 687l61 -102h-40l-48 61l-48 -61h-40l62 102h53z" />
    <glyph glyph-name="acircumflex.alt" 
d="M200 687l61 -102h-40l-48 61l-48 -61h-40l62 102h53zM289 537v-537h-57v37c-26 -23 -55 -43 -98 -43h-2c-62 0 -94 38 -94 99v351c0 61 32 99 94 99h2c43 0 72 -19 98 -42v36h57zM232 83v370c-30 24 -54 35 -82 35c-36 0 -55 -15 -55 -50v-339c0 -35 19 -50 55 -50
c29 0 53 11 82 34z" />
    <glyph glyph-name="Adieresis" unicode="&#xc4;" horiz-adv-x="352" 
d="M329 0h-58l-21 132h-149l-20 -132h-58l117 702h72zM175 603l-65 -415h131zM206 745v69h51v-69h-51zM147 814v-69h-51v69h51z" />
    <glyph glyph-name="adieresis" unicode="&#xe4;" horiz-adv-x="317" 
d="M34 85v99c0 62 22 88 80 110l106 39v99c0 37 -19 57 -58 57h-7c-39 0 -59 -20 -59 -57v-69h-56v67c0 74 39 113 115 113h8c76 0 114 -39 114 -113v-430h-57v36c-28 -23 -56 -42 -97 -42h-2c-58 0 -87 32 -87 91zM140 49c25 0 48 10 80 31v199l-82 -31
c-35 -14 -46 -30 -46 -65v-87c0 -32 16 -47 47 -47h1zM195 585v84h50v-84h-50zM135 669v-84h-50v84h50z" />
    <glyph glyph-name="adieresis.alt" 
d="M203 585v84h50v-84h-50zM143 669v-84h-50v84h50zM289 537v-537h-57v37c-26 -23 -55 -43 -98 -43h-2c-62 0 -94 38 -94 99v351c0 61 32 99 94 99h2c43 0 72 -19 98 -42v36h57zM232 83v370c-30 24 -54 35 -82 35c-36 0 -55 -15 -55 -50v-339c0 -35 19 -50 55 -50
c29 0 53 11 82 34z" />
    <glyph glyph-name="Agrave" unicode="&#xc0;" horiz-adv-x="352" 
d="M212 702l117 -702h-58l-21 132h-149l-20 -132h-58l117 702h72zM175 603l-65 -415h131zM152 827l45 -82h-39l-66 82h60z" />
    <glyph glyph-name="agrave" unicode="&#xe0;" horiz-adv-x="317" 
d="M34 85v99c0 62 22 88 80 110l106 39v99c0 37 -19 57 -58 57h-7c-39 0 -59 -20 -59 -57v-69h-56v67c0 74 39 113 115 113h8c76 0 114 -39 114 -113v-430h-57v36c-28 -23 -56 -42 -97 -42h-2c-58 0 -87 32 -87 91zM140 49c25 0 48 10 80 31v199l-82 -31
c-35 -14 -46 -30 -46 -65v-87c0 -32 16 -47 47 -47h1zM146 687l39 -102h-39l-60 102h60z" />
    <glyph glyph-name="agrave.alt" 
d="M289 537v-537h-57v37c-26 -23 -55 -43 -98 -43h-2c-62 0 -94 38 -94 99v351c0 61 32 99 94 99h2c43 0 72 -19 98 -42v36h57zM232 83v370c-30 24 -54 35 -82 35c-36 0 -55 -15 -55 -50v-339c0 -35 19 -50 55 -50c29 0 53 11 82 34zM154 687l39 -102h-39l-60 102h60z" />
    <glyph glyph-name="Amacron" unicode="&#x100;" horiz-adv-x="352" 
d="M329 0h-58l-21 132h-149l-20 -132h-58l117 702h72zM175 603l-65 -415h131zM86 801h182v-43h-182v43z" />
    <glyph glyph-name="amacron" unicode="&#x101;" horiz-adv-x="317" 
d="M34 85v99c0 62 22 88 80 110l106 39v99c0 37 -19 57 -58 57h-7c-39 0 -59 -20 -59 -57v-69h-56v67c0 74 39 113 115 113h8c76 0 114 -39 114 -113v-430h-57v36c-28 -23 -56 -42 -97 -42h-2c-58 0 -87 32 -87 91zM140 49c25 0 48 10 80 31v199l-82 -31
c-35 -14 -46 -30 -46 -65v-87c0 -32 16 -47 47 -47h1zM74 650h182v-50h-182v50z" />
    <glyph glyph-name="amacron.alt" 
d="M289 537v-537h-57v37c-26 -23 -55 -43 -98 -43h-2c-62 0 -94 38 -94 99v351c0 61 32 99 94 99h2c43 0 72 -19 98 -42v36h57zM232 83v370c-30 24 -54 35 -82 35c-36 0 -55 -15 -55 -50v-339c0 -35 19 -50 55 -50c29 0 53 11 82 34zM82 650h182v-50h-182v50z" />
    <glyph glyph-name="Aogonek" unicode="&#x104;" horiz-adv-x="352" 
d="M212 702l117 -702h-8l-7 -13c-7 -12 -13 -25 -13 -34v-2c0 -9 4 -12 13 -12h26v-38h-38c-33 0 -46 14 -46 40v5c0 15 9 32 21 51l2 3h-8l-21 132h-149l-20 -132h-58l117 702h72zM175 603l-65 -415h131z" />
    <glyph glyph-name="aogonek" unicode="&#x105;" horiz-adv-x="317" 
d="M34 85v99c0 62 22 88 80 110l106 39v99c0 37 -19 57 -58 57h-7c-39 0 -59 -20 -59 -57v-69h-56v67c0 74 39 113 115 113h8c76 0 114 -39 114 -113v-430h-6l-7 -13c-7 -12 -13 -25 -13 -34v-2c0 -9 4 -12 13 -12h26v-38h-38c-33 0 -46 14 -46 40v5c0 15 9 32 21 51l2 3h-9
v36c-28 -23 -56 -42 -97 -42h-2c-58 0 -87 32 -87 91zM140 49c25 0 48 10 80 31v199l-82 -31c-35 -14 -46 -30 -46 -65v-87c0 -32 16 -47 47 -47h1z" />
    <glyph glyph-name="aogonek.alt" 
d="M289 537v-537h-6l-7 -13c-7 -12 -13 -25 -13 -34v-2c0 -9 4 -12 13 -12h26v-38h-38c-33 0 -46 14 -46 40v5c0 15 9 32 21 51l2 3h-9v37c-26 -23 -55 -43 -98 -43h-2c-62 0 -94 38 -94 99v351c0 61 32 99 94 99h2c43 0 72 -19 98 -42v36h57zM232 83v370
c-30 24 -54 35 -82 35c-36 0 -55 -15 -55 -50v-339c0 -35 19 -50 55 -50c29 0 53 11 82 34z" />
    <glyph glyph-name="Aring" unicode="&#xc5;" horiz-adv-x="352" 
d="M269 707v-4c0 -30 -17 -47 -49 -50l109 -653h-59l-21 132h-148l-20 -132h-58l109 653c-32 3 -48 20 -48 50v4c0 33 20 49 60 49h64c40 0 61 -16 61 -49zM175 605l-65 -418h131zM247 702v6c0 21 -12 29 -41 29h-60c-29 0 -41 -8 -41 -29v-6c0 -22 12 -30 41 -30h60
c29 0 41 8 41 30z" />
    <glyph glyph-name="aring" unicode="&#xe5;" horiz-adv-x="317" 
d="M34 85v99c0 62 22 88 80 110l106 39v99c0 37 -19 57 -58 57h-7c-39 0 -59 -20 -59 -57v-69h-56v67c0 74 39 113 115 113h8c76 0 114 -39 114 -113v-430h-57v36c-28 -23 -56 -42 -97 -42h-2c-58 0 -87 32 -87 91zM140 49c25 0 48 10 80 31v199l-82 -31
c-35 -14 -46 -30 -46 -65v-87c0 -32 16 -47 47 -47h1zM245 640v-5c0 -33 -18 -51 -61 -51h-38c-43 0 -61 18 -61 51v5c0 33 18 51 61 51h38c43 0 61 -18 61 -51zM224 635v5c0 22 -11 32 -43 32h-32c-32 0 -43 -10 -43 -32v-5c0 -22 11 -32 44 -32h31c32 0 43 10 43 32z" />
    <glyph glyph-name="aring.alt" 
d="M253 640v-5c0 -33 -18 -51 -61 -51h-38c-43 0 -61 18 -61 51v5c0 33 18 51 61 51h38c43 0 61 -18 61 -51zM232 635v5c0 22 -11 32 -43 32h-32c-32 0 -43 -10 -43 -32v-5c0 -22 11 -32 44 -32h31c32 0 43 10 43 32zM289 537v-537h-57v37c-26 -23 -55 -43 -98 -43h-2
c-62 0 -94 38 -94 99v351c0 61 32 99 94 99h2c43 0 72 -19 98 -42v36h57zM232 83v370c-30 24 -54 35 -82 35c-36 0 -55 -15 -55 -50v-339c0 -35 19 -50 55 -50c29 0 53 11 82 34z" />
    <glyph glyph-name="Aringacute" unicode="&#x1fa;" horiz-adv-x="352" 
d="M269 707v-4c0 -30 -17 -47 -49 -50l109 -653h-59l-21 132h-148l-20 -132h-58l109 653c-32 3 -48 20 -48 50v4c0 33 20 49 60 49h64c40 0 61 -16 61 -49zM175 605l-65 -418h131zM247 702v6c0 21 -12 29 -41 29h-60c-29 0 -41 -8 -41 -29v-6c0 -22 12 -30 41 -30h60
c29 0 41 8 41 30zM160 780l45 82h59l-65 -82h-39z" />
    <glyph glyph-name="aringacute" unicode="&#x1fb;" horiz-adv-x="317" 
d="M34 85v99c0 62 22 88 80 110l106 39v99c0 37 -19 57 -58 57h-7c-39 0 -59 -20 -59 -57v-69h-56v67c0 74 39 113 115 113h8c76 0 114 -39 114 -113v-430h-57v36c-28 -23 -56 -42 -97 -42h-2c-58 0 -87 32 -87 91zM140 49c25 0 48 10 80 31v199l-82 -31
c-35 -14 -46 -30 -46 -65v-87c0 -32 16 -47 47 -47h1zM241 640v-5c0 -33 -18 -51 -61 -51h-38c-43 0 -61 18 -61 51v5c0 33 18 51 61 51h38c43 0 61 -18 61 -51zM220 635v5c0 22 -11 32 -43 32h-32c-32 0 -43 -10 -43 -32v-5c0 -22 11 -32 44 -32h31c32 0 43 10 43 32z
M143 723l39 102h59l-60 -102h-38z" />
    <glyph glyph-name="aringacute.alt" 
d="M152 723l39 102h59l-60 -102h-38zM249 640v-5c0 -33 -18 -51 -61 -51h-38c-43 0 -61 18 -61 51v5c0 33 18 51 61 51h38c43 0 61 -18 61 -51zM228 635v5c0 22 -11 32 -43 32h-32c-32 0 -43 -10 -43 -32v-5c0 -22 11 -32 44 -32h31c32 0 43 10 43 32zM289 537v-537h-57v37
c-26 -23 -55 -43 -98 -43h-2c-62 0 -94 38 -94 99v351c0 61 32 99 94 99h2c43 0 72 -19 98 -42v36h57zM232 83v370c-30 24 -54 35 -82 35c-36 0 -55 -15 -55 -50v-339c0 -35 19 -50 55 -50c29 0 53 11 82 34z" />
    <glyph glyph-name="Atilde" unicode="&#xc3;" horiz-adv-x="352" 
d="M212 702l117 -702h-58l-21 132h-149l-20 -132h-58l117 702h72zM175 603l-65 -415h131zM118 836h4c17 0 27 -3 42 -13l39 -29c9 -6 14 -8 20 -8h2c9 0 11 4 11 14v36h39v-51c0 -26 -13 -40 -39 -40h-4c-17 0 -27 3 -42 13l-39 28c-9 6 -13 8 -20 8h-2c-9 0 -11 -4 -11 -14
v-35h-39v51c0 26 13 40 39 40z" />
    <glyph glyph-name="atilde" unicode="&#xe3;" horiz-adv-x="317" 
d="M34 85v99c0 62 22 88 80 110l106 39v99c0 37 -19 57 -58 57h-7c-39 0 -59 -20 -59 -57v-69h-56v67c0 74 39 113 115 113h8c76 0 114 -39 114 -113v-430h-57v36c-28 -23 -56 -42 -97 -42h-2c-58 0 -87 32 -87 91zM140 49c25 0 48 10 80 31v199l-82 -31
c-35 -14 -46 -30 -46 -65v-87c0 -32 16 -47 47 -47h1zM110 681h3c18 0 27 -3 44 -16l31 -26c10 -8 14 -11 20 -11h2c8 0 10 4 10 14v39h40v-55c0 -27 -14 -41 -39 -41h-4c-18 0 -27 3 -44 17l-31 25c-10 8 -14 11 -20 11h-2c-8 0 -10 -4 -10 -14v-39h-39v55
c0 27 14 41 39 41z" />
    <glyph glyph-name="atilde.alt" 
d="M289 537v-537h-57v37c-26 -23 -55 -43 -98 -43h-2c-62 0 -94 38 -94 99v351c0 61 32 99 94 99h2c43 0 72 -19 98 -42v36h57zM232 83v370c-30 24 -54 35 -82 35c-36 0 -55 -15 -55 -50v-339c0 -35 19 -50 55 -50c29 0 53 11 82 34zM118 681h3c18 0 27 -3 44 -16l31 -26
c10 -8 14 -11 20 -11h2c8 0 10 4 10 14v39h40v-55c0 -27 -14 -41 -39 -41h-4c-18 0 -27 3 -44 17l-31 25c-10 8 -14 11 -20 11h-2c-8 0 -10 -4 -10 -14v-39h-39v55c0 27 14 41 39 41z" />
    <glyph glyph-name="Cacute" unicode="&#x106;" horiz-adv-x="352" 
d="M256 265h59v-148c0 -81 -41 -123 -123 -123h-27c-82 0 -123 42 -123 123v467c0 80 41 122 123 122h27c81 0 121 -41 121 -121v-129h-59v130c0 43 -21 64 -65 64h-22c-44 0 -65 -21 -65 -64v-472c0 -43 21 -64 65 -64h24c44 0 65 21 65 64v151zM159 745l45 82h59l-65 -82
h-39z" />
    <glyph glyph-name="cacute" unicode="&#x107;" horiz-adv-x="324" 
d="M143 585l39 102h59l-60 -102h-38zM229 343v85c0 41 -20 61 -60 61h-14c-40 0 -60 -20 -60 -61v-319c0 -41 20 -60 60 -60h15c40 0 60 19 60 60v102h57v-100c0 -77 -39 -117 -116 -117h-17c-78 0 -117 40 -117 117v315c0 78 39 117 117 117h17c77 0 115 -39 115 -115v-85
h-57z" />
    <glyph glyph-name="Ccaron" unicode="&#x10c;" horiz-adv-x="352" 
d="M256 265h59v-148c0 -81 -41 -123 -123 -123h-27c-82 0 -123 42 -123 123v467c0 80 41 122 123 122h27c81 0 121 -41 121 -121v-129h-59v130c0 43 -21 64 -65 64h-22c-44 0 -65 -21 -65 -64v-472c0 -43 21 -64 65 -64h24c44 0 65 21 65 64v151zM271 835l-65 -90h-53
l-66 90h40l52 -53l52 53h40z" />
    <glyph glyph-name="ccaron" unicode="&#x10d;" horiz-adv-x="324" 
d="M251 687l-61 -102h-53l-62 102h40l48 -62l48 62h40zM229 343v85c0 41 -20 61 -60 61h-14c-40 0 -60 -20 -60 -61v-319c0 -41 20 -60 60 -60h15c40 0 60 19 60 60v102h57v-100c0 -77 -39 -117 -116 -117h-17c-78 0 -117 40 -117 117v315c0 78 39 117 117 117h17
c77 0 115 -39 115 -115v-85h-57z" />
    <glyph glyph-name="Ccedilla" unicode="&#xc7;" horiz-adv-x="352" 
d="M256 265h59v-148c0 -77 -37 -118 -111 -122l-21 -86h-53l36 85h-1c-82 0 -123 42 -123 123v467c0 80 41 122 123 122h27c81 0 121 -41 121 -121v-129h-59v130c0 43 -21 64 -65 64h-22c-44 0 -65 -21 -65 -64v-472c0 -43 21 -64 65 -64h24c44 0 65 21 65 64v151z" />
    <glyph glyph-name="ccedilla" unicode="&#xe7;" horiz-adv-x="324" 
d="M229 343v85c0 41 -20 61 -60 61h-14c-40 0 -60 -20 -60 -61v-319c0 -41 20 -60 60 -60h15c40 0 60 19 60 60v102h57v-100c0 -73 -35 -112 -104 -116l-21 -86h-53l36 85c-72 3 -108 43 -108 117v315c0 78 39 117 117 117h17c77 0 115 -39 115 -115v-85h-57z" />
    <glyph glyph-name="Cdotaccent" unicode="&#x10a;" horiz-adv-x="352" 
d="M205 809v-64h-52v64h52zM256 265h59v-148c0 -81 -41 -123 -123 -123h-27c-82 0 -123 42 -123 123v467c0 80 41 122 123 122h27c81 0 121 -41 121 -121v-129h-59v130c0 43 -21 64 -65 64h-22c-44 0 -65 -21 -65 -64v-472c0 -43 21 -64 65 -64h24c44 0 65 21 65 64v151z
" />
    <glyph glyph-name="cdotaccent" unicode="&#x10b;" horiz-adv-x="324" 
d="M229 343v85c0 41 -20 61 -60 61h-14c-40 0 -60 -20 -60 -61v-319c0 -41 20 -60 60 -60h15c40 0 60 19 60 60v102h57v-100c0 -77 -39 -117 -116 -117h-17c-78 0 -117 40 -117 117v315c0 78 39 117 117 117h17c77 0 115 -39 115 -115v-85h-57zM188 664v-79h-52v79h52z" />
    <glyph glyph-name="Dcaron" unicode="&#x10e;" horiz-adv-x="360" 
d="M267 835l-65 -90h-53l-66 90h40l52 -53l52 53h40zM46 0v700h123c100 0 149 -49 149 -149v-402c0 -100 -49 -149 -149 -149h-123zM106 644v-588h60c62 0 92 30 92 93v402c0 63 -30 93 -92 93h-60z" />
    <glyph glyph-name="dcaron" unicode="&#x10f;" 
d="M321 592v117h47l-19 -117h-28zM289 710v-710h-57v37c-26 -23 -55 -43 -98 -43h-2c-62 0 -94 38 -94 99v351c0 61 32 99 94 99h2c43 0 72 -19 98 -42v209h57zM232 85v366c-31 27 -54 37 -81 37h-2c-35 0 -54 -15 -54 -50v-339c0 -35 19 -50 54 -50h2c28 0 52 12 81 36z
" />
    <glyph glyph-name="Dcroat" unicode="&#x110;" horiz-adv-x="374" 
d="M59 0v328h-49v53h49v319h123c100 0 149 -49 149 -149v-402c0 -100 -49 -149 -149 -149h-123zM119 644v-263h83v-53h-83v-272h60c62 0 92 30 92 93v402c0 63 -30 93 -92 93h-60z" />
    <glyph glyph-name="dcroat" unicode="&#x111;" horiz-adv-x="343" 
d="M289 710v-69h41v-46h-41v-595h-57v37c-26 -23 -55 -43 -98 -43h-2c-62 0 -94 38 -94 99v351c0 61 32 99 94 99h2c43 0 72 -19 98 -42v94h-108v46h108v69h57zM232 85v366c-31 27 -54 37 -81 37h-2c-35 0 -54 -15 -54 -50v-339c0 -35 19 -50 54 -50h2c28 0 52 12 81 36z
" />
    <glyph glyph-name="Eacute" unicode="&#xc9;" horiz-adv-x="293" 
d="M133 745l45 82h59l-65 -82h-39zM46 700h211v-56h-151v-259h146v-56h-146v-273h153v-56h-213v700z" />
    <glyph glyph-name="eacute" unicode="&#xe9;" horiz-adv-x="321" 
d="M285 246h-190v-137c0 -40 20 -60 61 -60h12c40 0 61 20 61 60v62h56v-60c0 -77 -40 -117 -117 -117h-14c-78 0 -117 40 -117 117v315c0 77 39 117 117 117h14c77 0 117 -40 117 -117v-180zM95 428v-127h132v127c0 40 -20 61 -60 61h-11c-41 0 -61 -21 -61 -61zM142 585
l39 102h59l-60 -102h-38z" />
    <glyph glyph-name="Ebreve" unicode="&#x114;" horiz-adv-x="293" 
d="M69 810v17h42v-13c0 -24 14 -32 37 -32h10c23 0 36 8 36 32v13h43v-17c0 -46 -26 -68 -76 -68h-16c-50 0 -76 22 -76 68zM46 700h211v-56h-151v-259h146v-56h-146v-273h153v-56h-213v700z" />
    <glyph glyph-name="ebreve" unicode="&#x115;" horiz-adv-x="321" 
d="M285 246h-190v-137c0 -40 20 -60 61 -60h12c40 0 61 20 61 60v62h56v-60c0 -77 -40 -117 -117 -117h-14c-78 0 -117 40 -117 117v315c0 77 39 117 117 117h14c77 0 117 -40 117 -117v-180zM95 428v-127h132v127c0 40 -20 61 -60 61h-11c-41 0 -61 -21 -61 -61zM80 657v27
h43v-27c0 -25 13 -34 36 -34h6c23 0 36 9 36 34v27h43v-27c0 -52 -26 -75 -76 -75h-12c-50 0 -76 23 -76 75z" />
    <glyph glyph-name="Ecaron" unicode="&#x11a;" horiz-adv-x="293" 
d="M245 835l-65 -90h-53l-66 90h40l52 -53l52 53h40zM46 700h211v-56h-151v-259h146v-56h-146v-273h153v-56h-213v700z" />
    <glyph glyph-name="ecaron" unicode="&#x11b;" horiz-adv-x="321" 
d="M285 246h-190v-137c0 -40 20 -60 61 -60h12c40 0 61 20 61 60v62h56v-60c0 -77 -40 -117 -117 -117h-14c-78 0 -117 40 -117 117v315c0 77 39 117 117 117h14c77 0 117 -40 117 -117v-180zM95 428v-127h132v127c0 40 -20 61 -60 61h-11c-41 0 -61 -21 -61 -61zM250 687
l-61 -102h-53l-62 102h40l48 -62l48 62h40z" />
    <glyph glyph-name="Ecircumflex" unicode="&#xca;" horiz-adv-x="293" 
d="M46 700h211v-56h-151v-259h146v-56h-146v-273h153v-56h-213v700zM180 835l65 -90h-40l-52 52l-52 -52h-40l66 90h53z" />
    <glyph glyph-name="ecircumflex" unicode="&#xea;" horiz-adv-x="321" 
d="M285 246h-190v-137c0 -40 20 -60 61 -60h12c40 0 61 20 61 60v62h56v-60c0 -77 -40 -117 -117 -117h-14c-78 0 -117 40 -117 117v315c0 77 39 117 117 117h14c77 0 117 -40 117 -117v-180zM95 428v-127h132v127c0 40 -20 61 -60 61h-11c-41 0 -61 -21 -61 -61zM189 687
l61 -102h-40l-48 61l-48 -61h-40l62 102h53z" />
    <glyph glyph-name="Edieresis" unicode="&#xcb;" horiz-adv-x="293" 
d="M182 745v69h51v-69h-51zM123 814v-69h-51v69h51zM46 700h211v-56h-151v-259h146v-56h-146v-273h153v-56h-213v700z" />
    <glyph glyph-name="edieresis" unicode="&#xeb;" horiz-adv-x="321" 
d="M285 246h-190v-137c0 -40 20 -60 61 -60h12c40 0 61 20 61 60v62h56v-60c0 -77 -40 -117 -117 -117h-14c-78 0 -117 40 -117 117v315c0 77 39 117 117 117h14c77 0 117 -40 117 -117v-180zM95 428v-127h132v127c0 40 -20 61 -60 61h-11c-41 0 -61 -21 -61 -61zM132 669
v-84h-50v84h50zM192 585v84h50v-84h-50z" />
    <glyph glyph-name="Edotaccent" unicode="&#x116;" horiz-adv-x="293" 
d="M178 809v-64h-52v64h52zM46 700h211v-56h-151v-259h146v-56h-146v-273h153v-56h-213v700z" />
    <glyph glyph-name="edotaccent" unicode="&#x117;" horiz-adv-x="321" 
d="M285 246h-190v-137c0 -40 20 -60 61 -60h12c40 0 61 20 61 60v62h56v-60c0 -77 -40 -117 -117 -117h-14c-78 0 -117 40 -117 117v315c0 77 39 117 117 117h14c77 0 117 -40 117 -117v-180zM95 428v-127h132v127c0 40 -20 61 -60 61h-11c-41 0 -61 -21 -61 -61zM187 664
v-79h-52v79h52z" />
    <glyph glyph-name="Egrave" unicode="&#xc8;" horiz-adv-x="293" 
d="M128 827l45 -82h-39l-66 82h60zM46 700h211v-56h-151v-259h146v-56h-146v-273h153v-56h-213v700z" />
    <glyph glyph-name="egrave" unicode="&#xe8;" horiz-adv-x="321" 
d="M285 246h-190v-137c0 -40 20 -60 61 -60h12c40 0 61 20 61 60v62h56v-60c0 -77 -40 -117 -117 -117h-14c-78 0 -117 40 -117 117v315c0 77 39 117 117 117h14c77 0 117 -40 117 -117v-180zM95 428v-127h132v127c0 40 -20 61 -60 61h-11c-41 0 -61 -21 -61 -61zM143 687
l39 -102h-39l-60 102h60z" />
    <glyph glyph-name="Emacron" unicode="&#x112;" horiz-adv-x="293" 
d="M62 801h182v-43h-182v43zM46 700h211v-56h-151v-259h146v-56h-146v-273h153v-56h-213v700z" />
    <glyph glyph-name="emacron" unicode="&#x113;" horiz-adv-x="321" 
d="M285 246h-190v-137c0 -40 20 -60 61 -60h12c40 0 61 20 61 60v62h56v-60c0 -77 -40 -117 -117 -117h-14c-78 0 -117 40 -117 117v315c0 77 39 117 117 117h14c77 0 117 -40 117 -117v-180zM95 428v-127h132v127c0 40 -20 61 -60 61h-11c-41 0 -61 -21 -61 -61zM71 650
h182v-50h-182v50z" />
    <glyph glyph-name="Eogonek" unicode="&#x118;" horiz-adv-x="293" 
d="M46 700h211v-56h-151v-259h146v-56h-146v-273h153v-56h-12l-7 -13c-7 -12 -13 -25 -13 -34v-2c0 -9 4 -12 13 -12h26v-38h-38c-33 0 -46 14 -46 40v5c0 15 9 32 21 51l2 3h-159v700z" />
    <glyph glyph-name="eogonek" unicode="&#x119;" horiz-adv-x="321" 
d="M285 246h-190v-137c0 -40 20 -61 61 -61h12c40 0 61 21 61 61v62h56v-60c0 -30 -7 -52 -16 -69c-2 -2 -25 -48 -27 -53c-8 -14 -14 -25 -14 -37c0 -9 4 -12 13 -12h26v-38h-37c-33 0 -46 14 -46 40v4c0 15 7 31 19 52c-12 -3 -26 -4 -35 -4h-14c-78 0 -117 40 -117 117
v315c0 77 39 117 117 117h14c77 0 117 -40 117 -117v-180zM95 428v-128h132v128c0 40 -20 61 -60 61h-11c-41 0 -61 -21 -61 -61z" />
    <glyph glyph-name="Gbreve" unicode="&#x11e;" horiz-adv-x="359" 
d="M97 810v17h42v-13c0 -24 14 -32 37 -32h10c23 0 36 8 36 32v13h43v-17c0 -46 -26 -68 -76 -68h-16c-50 0 -76 22 -76 68zM259 309h-79v56h138v-248c0 -81 -41 -123 -122 -123h-31c-82 0 -123 42 -123 123v467c0 80 41 122 123 122h31c81 0 121 -42 121 -121v-103h-59v104
c0 43 -21 64 -65 64h-26c-44 0 -65 -21 -65 -64v-472c0 -43 21 -64 65 -64h28c43 0 64 21 64 64v195z" />
    <glyph glyph-name="gbreve" unicode="&#x11f;" horiz-adv-x="330" 
d="M289 537v-544c0 -72 -35 -107 -110 -107h-36c-70 0 -102 33 -102 99v24h53v-22c0 -32 16 -50 51 -50h36c35 0 50 18 50 50v103c-29 -25 -57 -40 -97 -40h-2c-62 0 -94 37 -94 98v296c0 61 32 99 94 99h2c43 0 72 -18 97 -42v36h58zM231 137v315c-29 24 -52 36 -80 36h-2
c-35 0 -54 -15 -54 -50v-283c0 -36 19 -51 54 -51h2c28 0 52 11 80 33zM90 657v27h43v-27c0 -25 13 -34 36 -34h6c23 0 36 9 36 34v27h43v-27c0 -52 -26 -75 -76 -75h-12c-50 0 -76 23 -76 75z" />
    <glyph glyph-name="Gcommaaccent" unicode="&#x122;" horiz-adv-x="359" 
d="M259 309h-79v56h138v-248c0 -81 -41 -123 -122 -123h-31c-82 0 -123 42 -123 123v467c0 80 41 122 123 122h31c81 0 121 -42 121 -121v-103h-59v104c0 43 -21 64 -65 64h-26c-44 0 -65 -21 -65 -64v-472c0 -43 21 -64 65 -64h28c43 0 64 21 64 64v195zM207 -45v-50
c0 -29 -3 -45 -23 -71l-14 -18l-17 11l9 15c10 17 13 28 14 38h-18v75h49z" />
    <glyph glyph-name="gcommaaccent" unicode="&#x123;" horiz-adv-x="330" 
d="M289 537v-544c0 -72 -35 -107 -110 -107h-36c-70 0 -102 33 -102 99v24h53v-22c0 -32 16 -50 51 -50h36c35 0 50 18 50 50v103c-29 -25 -57 -40 -97 -40h-2c-62 0 -94 37 -94 98v296c0 61 32 99 94 99h2c43 0 72 -18 97 -42v36h58zM231 137v315c-29 24 -52 36 -80 36h-2
c-35 0 -54 -15 -54 -50v-283c0 -36 19 -51 54 -51h2c28 0 52 11 80 33zM145 585v50c0 29 3 45 23 71l14 18l17 -11l-9 -15c-10 -17 -14 -28 -15 -38h19v-75h-49z" />
    <glyph glyph-name="Gcommaaccent.alt" horiz-adv-x="359" 
d="M206 -45v-18c0 -33 -12 -67 -21 -85h-36c9 29 13 47 13 84v19h44zM259 309h-79v56h138v-248c0 -81 -41 -123 -122 -123h-31c-82 0 -123 42 -123 123v467c0 80 41 122 123 122h31c81 0 121 -42 121 -121v-103h-59v104c0 43 -21 64 -65 64h-26c-44 0 -65 -21 -65 -64v-472
c0 -43 21 -64 65 -64h28c43 0 64 21 64 64v195z" />
    <glyph glyph-name="gcommaaccent.alt" horiz-adv-x="330" 
d="M146 585v18c0 33 12 67 21 85h36c-9 -29 -13 -47 -13 -84v-19h-44zM289 537v-544c0 -72 -35 -107 -110 -107h-36c-70 0 -102 33 -102 99v24h53v-22c0 -32 16 -50 51 -50h36c35 0 50 18 50 50v103c-29 -25 -57 -40 -97 -40h-2c-62 0 -94 37 -94 98v296c0 61 32 99 94 99h2
c43 0 72 -18 97 -42v36h58zM231 137v315c-29 24 -52 36 -80 36h-2c-35 0 -54 -15 -54 -50v-283c0 -36 19 -51 54 -51h2c28 0 52 11 80 33z" />
    <glyph glyph-name="Gdotaccent" unicode="&#x120;" horiz-adv-x="359" 
d="M207 809v-64h-52v64h52zM259 309h-79v56h138v-248c0 -81 -41 -123 -122 -123h-31c-82 0 -123 42 -123 123v467c0 80 41 122 123 122h31c81 0 121 -42 121 -121v-103h-59v104c0 43 -21 64 -65 64h-26c-44 0 -65 -21 -65 -64v-472c0 -43 21 -64 65 -64h28c43 0 64 21 64 64
v195z" />
    <glyph glyph-name="gdotaccent" unicode="&#x121;" horiz-adv-x="330" 
d="M289 537v-544c0 -72 -35 -107 -110 -107h-36c-70 0 -102 33 -102 99v24h53v-22c0 -32 16 -50 51 -50h36c35 0 50 18 50 50v103c-29 -25 -57 -40 -97 -40h-2c-62 0 -94 37 -94 98v296c0 61 32 99 94 99h2c43 0 72 -18 97 -42v36h58zM231 137v315c-29 24 -52 36 -80 36h-2
c-35 0 -54 -15 -54 -50v-283c0 -36 19 -51 54 -51h2c28 0 52 11 80 33zM197 664v-79h-52v79h52z" />
    <glyph glyph-name="Hbar" unicode="&#x126;" horiz-adv-x="393" 
d="M10 533v53h49v114h60v-117h154v117h60v-114h53v-53h-53v-533h-60v329h-154v-329h-60v533h-49zM119 385h154v151h-154v-151z" />
    <glyph glyph-name="hbar" unicode="&#x127;" horiz-adv-x="341" 
d="M51 0v595h-40v46h40v69h57v-69h108v-46h-108v-95c29 24 57 43 99 43h3c60 0 90 -33 90 -92v-451h-57v440c0 33 -17 49 -50 49h-1c-27 0 -51 -10 -84 -34v-455h-57z" />
    <glyph glyph-name="Iacute" unicode="&#xcd;" horiz-adv-x="154" 
d="M107 700v-700h-60v700h60zM58 745l45 82h59l-65 -82h-39z" />
    <glyph glyph-name="iacute" unicode="&#xed;" horiz-adv-x="146" 
d="M54 585l39 102h59l-60 -102h-38zM44 0v537h58v-537h-58z" />
    <glyph glyph-name="Ibreve" unicode="&#x12c;" horiz-adv-x="154" 
d="M107 700v-700h-60v700h60zM-6 810v17h42v-13c0 -24 14 -32 37 -32h10c23 0 36 8 36 32v13h43v-17c0 -46 -26 -68 -76 -68h-16c-50 0 -76 22 -76 68z" />
    <glyph glyph-name="ibreve" unicode="&#x12d;" horiz-adv-x="146" 
d="M44 0v537h58v-537h-58zM-8 657v27h43v-27c0 -25 13 -34 36 -34h6c23 0 36 9 36 34v27h43v-27c0 -52 -26 -75 -76 -75h-12c-50 0 -76 23 -76 75z" />
    <glyph glyph-name="Icircumflex" unicode="&#xce;" horiz-adv-x="154" 
d="M107 700v-700h-60v700h60zM105 835l65 -90h-40l-52 52l-52 -52h-40l66 90h53z" />
    <glyph glyph-name="icircumflex" unicode="&#xee;" horiz-adv-x="146" 
d="M101 687l61 -102h-40l-48 61l-48 -61h-40l62 102h53zM44 0v537h58v-537h-58z" />
    <glyph glyph-name="Idieresis" unicode="&#xcf;" horiz-adv-x="154" 
d="M107 700v-700h-60v700h60zM108 745v69h51v-69h-51zM49 814v-69h-51v69h51z" />
    <glyph glyph-name="idieresis" unicode="&#xef;" horiz-adv-x="146" 
d="M104 585v84h50v-84h-50zM44 669v-84h-50v84h50zM44 0v537h58v-537h-58z" />
    <glyph glyph-name="Idotaccent" unicode="&#x130;" horiz-adv-x="154" 
d="M107 700v-700h-60v700h60zM103 809v-64h-52v64h52z" />
    <glyph glyph-name="dotlessi" unicode="&#x131;" horiz-adv-x="146" 
d="M44 0v537h58v-537h-58z" />
    <glyph glyph-name="Igrave" unicode="&#xcc;" horiz-adv-x="154" 
d="M107 700v-700h-60v700h60zM53 827l45 -82h-39l-66 82h60z" />
    <glyph glyph-name="igrave" unicode="&#xec;" horiz-adv-x="146" 
d="M44 0v537h58v-537h-58zM55 687l39 -102h-39l-60 102h60z" />
    <glyph glyph-name="Imacron" unicode="&#x12a;" horiz-adv-x="154" 
d="M107 700v-700h-60v700h60zM-13 801h182v-43h-182v43z" />
    <glyph glyph-name="imacron" unicode="&#x12b;" horiz-adv-x="146" 
d="M44 0v537h58v-537h-58zM-17 650h182v-50h-182v50z" />
    <glyph glyph-name="Iogonek" unicode="&#x12e;" horiz-adv-x="154" 
d="M107 700v-700h-7l-7 -13c-7 -12 -13 -25 -13 -34v-2c0 -9 4 -12 13 -12h26v-38h-38c-33 0 -46 14 -46 40v5c0 15 9 32 21 51l2 3h-11v700h60z" />
    <glyph glyph-name="iogonek" unicode="&#x12f;" horiz-adv-x="146" 
d="M44 0v537h58v-537h-6l-7 -13c-7 -12 -13 -25 -13 -34v-2c0 -9 4 -12 13 -12h26v-38h-38c-33 0 -46 14 -46 40v5c0 15 9 32 21 51l2 3h-10zM43 601v76h60v-76h-60z" />
    <glyph glyph-name="Kcommaaccent" unicode="&#x136;" horiz-adv-x="335" 
d="M322 0h-66l-150 345v-345h-60v700h60v-341l156 341h64l-161 -344zM193 -45v-50c0 -29 -3 -45 -23 -71l-14 -18l-17 11l9 15c10 17 13 28 14 38h-18v75h49z" />
    <glyph glyph-name="kcommaaccent" unicode="&#x137;" horiz-adv-x="303" 
d="M234 537h61l-140 -262l137 -275h-64l-129 268v-268h-57v710h57v-433zM181 -45v-50c0 -29 -3 -45 -23 -71l-14 -18l-17 11l9 15c10 17 13 28 14 38h-18v75h49z" />
    <glyph glyph-name="Kcommaaccent.alt" horiz-adv-x="335" 
d="M322 0h-66l-150 345v-345h-60v700h60v-341l156 341h64l-161 -344zM192 -45v-18c0 -33 -12 -67 -21 -85h-36c9 29 13 47 13 84v19h44z" />
    <glyph glyph-name="kcommaaccent.alt" horiz-adv-x="303" 
d="M234 537h61l-140 -262l137 -275h-64l-129 268v-268h-57v710h57v-433zM180 -45v-18c0 -33 -12 -67 -21 -85h-36c9 29 13 47 13 84v19h44z" />
    <glyph glyph-name="Lacute" unicode="&#x139;" horiz-adv-x="270" 
d="M44 745l45 82h59l-65 -82h-39zM46 700h60v-644h143v-56h-203v700z" />
    <glyph glyph-name="lacute" unicode="&#x13a;" horiz-adv-x="146" 
d="M54 737l39 102h59l-60 -102h-38zM44 0v710h58v-710h-58z" />
    <glyph glyph-name="Lcaron" unicode="&#x13d;" horiz-adv-x="279" 
d="M141 582v117h47l-19 -117h-28zM55 700h60v-644h143v-56h-203v700z" />
    <glyph glyph-name="lcaron" unicode="&#x13e;" horiz-adv-x="146" 
d="M136 592v117h47l-19 -117h-28zM44 0v710h58v-710h-58z" />
    <glyph glyph-name="Lcommaaccent" unicode="&#x13b;" horiz-adv-x="270" 
d="M46 700h60v-644h143v-56h-203v700zM158 -45v-50c0 -29 -3 -45 -23 -71l-14 -18l-17 11l9 15c10 17 13 28 14 38h-18v75h49z" />
    <glyph glyph-name="lcommaaccent" unicode="&#x13c;" horiz-adv-x="146" 
d="M44 0v710h58v-710h-58zM99 -45v-50c0 -29 -3 -45 -23 -71l-14 -18l-17 11l9 15c10 17 13 28 14 38h-18v75h49z" />
    <glyph glyph-name="Lcommaaccent.alt" horiz-adv-x="270" 
d="M157 -45v-18c0 -33 -12 -67 -21 -85h-36c9 29 13 47 13 84v19h44zM46 700h60v-644h143v-56h-203v700z" />
    <glyph glyph-name="lcommaaccent.alt" horiz-adv-x="146" 
d="M98 -45v-18c0 -33 -12 -67 -21 -85h-36c9 29 13 47 13 84v19h44zM44 0v710h58v-710h-58z" />
    <glyph glyph-name="Ldot" unicode="&#x13f;" horiz-adv-x="279" 
d="M224 388v-79h-48v79h48zM55 700h60v-644h143v-56h-203v700z" />
    <glyph glyph-name="ldot" unicode="&#x140;" horiz-adv-x="177" 
d="M185 392v-79h-46v79h46zM44 0v710h58v-710h-58z" />
    <glyph glyph-name="Lslash" unicode="&#x141;" horiz-adv-x="274" 
d="M50 700h60v-301l69 38v-54l-69 -38v-289h143v-56h-203v313l-44 -24v54l44 24v333z" />
    <glyph glyph-name="lslash" unicode="&#x142;" horiz-adv-x="161" 
d="M51 0v308l-43 -29v54l43 29v348h58v-309l45 31v-54l-45 -30v-348h-58z" />
    <glyph glyph-name="Nacute" unicode="&#x143;" horiz-adv-x="375" 
d="M259 0l-158 577l2 -276v-301h-57v700h76l152 -561l-1 266v295h57v-700h-71zM169 745l45 82h59l-65 -82h-39z" />
    <glyph glyph-name="nacute" unicode="&#x144;" 
d="M146 585l39 102h59l-60 -102h-38zM42 0v537h57v-37c29 24 57 43 99 43h3c60 0 90 -33 90 -92v-451h-57v440c0 33 -17 49 -50 49h-1c-28 0 -51 -10 -84 -34v-455h-57z" />
    <glyph glyph-name="Ncaron" unicode="&#x147;" horiz-adv-x="375" 
d="M259 0l-158 577l2 -276v-301h-57v700h76l152 -561l-1 266v295h57v-700h-71zM280 835l-65 -90h-53l-66 90h40l52 -53l52 53h40z" />
    <glyph glyph-name="ncaron" unicode="&#x148;" 
d="M254 687l-61 -102h-53l-62 102h40l48 -62l48 62h40zM42 0v537h57v-37c29 24 57 43 99 43h3c60 0 90 -33 90 -92v-451h-57v440c0 33 -17 49 -50 49h-1c-28 0 -51 -10 -84 -34v-455h-57z" />
    <glyph glyph-name="Ncommaaccent" unicode="&#x145;" horiz-adv-x="375" 
d="M330 0h-71l-158 577l2 -276v-301h-57v700h76l152 -561l-1 266v295h57v-700zM213 -45v-50c0 -29 -3 -45 -23 -71l-14 -18l-17 11l9 15c10 17 13 28 14 38h-18v75h49z" />
    <glyph glyph-name="ncommaaccent" unicode="&#x146;" 
d="M42 0v537h57v-37c29 24 57 43 99 43h3c60 0 90 -33 90 -92v-451h-57v440c0 33 -17 49 -50 49h-1c-28 0 -51 -10 -84 -34v-455h-57zM191 -45v-50c0 -29 -3 -45 -23 -71l-14 -18l-17 11l9 15c10 17 13 28 14 38h-18v75h49z" />
    <glyph glyph-name="Ncommaaccent.alt" horiz-adv-x="375" 
d="M259 0l-158 577l2 -276v-301h-57v700h76l152 -561l-1 266v295h57v-700h-71zM213 -45v-18c0 -33 -13 -67 -21 -85h-37c9 29 13 47 13 84v19h45z" />
    <glyph glyph-name="ncommaaccent.alt" 
d="M191 -45v-18c0 -33 -13 -67 -21 -85h-37c9 29 13 47 13 84v19h45zM42 0v537h57v-37c29 24 57 43 99 43h3c60 0 90 -33 90 -92v-451h-57v440c0 33 -17 49 -50 49h-1c-28 0 -51 -10 -84 -34v-455h-57z" />
    <glyph glyph-name="Ntilde" unicode="&#xd1;" horiz-adv-x="375" 
d="M122 700l152 -561l-1 266v295h57v-700h-71l-158 577l2 -276v-301h-57v700h76zM129 836h4c17 0 27 -3 42 -13l39 -29c9 -6 14 -8 20 -8h2c9 0 11 4 11 14v36h39v-51c0 -26 -13 -40 -39 -40h-4c-17 0 -27 3 -42 13l-39 28c-9 6 -13 8 -20 8h-2c-9 0 -11 -4 -11 -14v-35h-39
v51c0 26 13 40 39 40z" />
    <glyph glyph-name="ntilde" unicode="&#xf1;" 
d="M42 0v537h57v-37c29 24 57 43 99 43h3c60 0 90 -33 90 -92v-451h-57v440c0 33 -17 49 -50 49h-1c-28 0 -51 -10 -84 -34v-455h-57zM111 681h3c18 0 27 -3 44 -16l31 -26c10 -8 14 -11 20 -11h2c8 0 10 4 10 14v39h40v-55c0 -27 -14 -41 -39 -41h-4c-18 0 -27 3 -44 17
l-31 25c-10 8 -14 11 -20 11h-2c-8 0 -10 -4 -10 -14v-39h-39v55c0 27 14 41 39 41z" />
    <glyph glyph-name="Oacute" unicode="&#xd3;" horiz-adv-x="362" 
d="M162 745l45 82h59l-65 -82h-39zM320 117c0 -81 -41 -123 -123 -123h-32c-82 0 -123 42 -123 123v467c0 80 41 122 123 122h32c82 0 123 -42 123 -122v-467zM260 586c0 43 -21 64 -65 64h-28c-44 0 -65 -21 -65 -64v-472c0 -43 21 -64 65 -64h28c44 0 65 21 65 64v472z
" />
    <glyph glyph-name="oacute" unicode="&#xf3;" horiz-adv-x="328" 
d="M145 585l39 102h59l-60 -102h-38zM175 -6h-21c-78 0 -117 40 -117 117v315c0 78 39 117 117 117h21c77 0 116 -39 116 -117v-315c0 -77 -39 -117 -116 -117zM174 489h-19c-40 0 -60 -20 -60 -61v-319c0 -41 20 -60 60 -60h19c40 0 60 19 60 60v319c0 41 -20 61 -60 61z
" />
    <glyph glyph-name="Obreve" unicode="&#x14e;" horiz-adv-x="362" 
d="M98 810v17h42v-13c0 -24 14 -32 37 -32h10c23 0 36 8 36 32v13h43v-17c0 -46 -26 -68 -76 -68h-16c-50 0 -76 22 -76 68zM320 117c0 -81 -41 -123 -123 -123h-32c-82 0 -123 42 -123 123v467c0 80 41 122 123 122h32c82 0 123 -42 123 -122v-467zM260 586
c0 43 -21 64 -65 64h-28c-44 0 -65 -21 -65 -64v-472c0 -43 21 -64 65 -64h28c44 0 65 21 65 64v472z" />
    <glyph glyph-name="obreve" unicode="&#x14f;" horiz-adv-x="328" 
d="M175 -6h-21c-78 0 -117 40 -117 117v315c0 78 39 117 117 117h21c77 0 116 -39 116 -117v-315c0 -77 -39 -117 -116 -117zM174 489h-19c-40 0 -60 -20 -60 -61v-319c0 -41 20 -60 60 -60h19c40 0 60 19 60 60v319c0 41 -20 61 -60 61zM83 657v27h43v-27
c0 -25 13 -34 36 -34h6c23 0 36 9 36 34v27h43v-27c0 -52 -26 -75 -76 -75h-12c-50 0 -76 23 -76 75z" />
    <glyph glyph-name="Ocircumflex" unicode="&#xd4;" horiz-adv-x="362" 
d="M320 117c0 -81 -41 -123 -123 -123h-32c-82 0 -123 42 -123 123v467c0 80 41 122 123 122h32c82 0 123 -42 123 -122v-467zM260 586c0 43 -21 64 -65 64h-28c-44 0 -65 -21 -65 -64v-472c0 -43 21 -64 65 -64h28c44 0 65 21 65 64v472zM208 835l65 -90h-40l-52 52
l-52 -52h-40l66 90h53z" />
    <glyph glyph-name="ocircumflex" unicode="&#xf4;" horiz-adv-x="328" 
d="M192 687l61 -102h-40l-48 61l-48 -61h-40l62 102h53zM175 -6h-21c-78 0 -117 40 -117 117v315c0 78 39 117 117 117h21c77 0 116 -39 116 -117v-315c0 -77 -39 -117 -116 -117zM174 489h-19c-40 0 -60 -20 -60 -61v-319c0 -41 20 -60 60 -60h19c40 0 60 19 60 60v319
c0 41 -20 61 -60 61z" />
    <glyph glyph-name="Odieresis" unicode="&#xd6;" horiz-adv-x="362" 
d="M211 745v69h51v-69h-51zM152 814v-69h-51v69h51zM320 117c0 -81 -41 -123 -123 -123h-32c-82 0 -123 42 -123 123v467c0 80 41 122 123 122h32c82 0 123 -42 123 -122v-467zM260 586c0 43 -21 64 -65 64h-28c-44 0 -65 -21 -65 -64v-472c0 -43 21 -64 65 -64h28
c44 0 65 21 65 64v472z" />
    <glyph glyph-name="odieresis" unicode="&#xf6;" horiz-adv-x="328" 
d="M195 585v84h50v-84h-50zM135 669v-84h-50v84h50zM175 -6h-21c-78 0 -117 40 -117 117v315c0 78 39 117 117 117h21c77 0 116 -39 116 -117v-315c0 -77 -39 -117 -116 -117zM174 489h-19c-40 0 -60 -20 -60 -61v-319c0 -41 20 -60 60 -60h19c40 0 60 19 60 60v319
c0 41 -20 61 -60 61z" />
    <glyph glyph-name="Ograve" unicode="&#xd2;" horiz-adv-x="362" 
d="M157 827l45 -82h-39l-66 82h60zM320 117c0 -81 -41 -123 -123 -123h-32c-82 0 -123 42 -123 123v467c0 80 41 122 123 122h32c82 0 123 -42 123 -122v-467zM260 586c0 43 -21 64 -65 64h-28c-44 0 -65 -21 -65 -64v-472c0 -43 21 -64 65 -64h28c44 0 65 21 65 64v472z
" />
    <glyph glyph-name="ograve" unicode="&#xf2;" horiz-adv-x="328" 
d="M175 -6h-21c-78 0 -117 40 -117 117v315c0 78 39 117 117 117h21c77 0 116 -39 116 -117v-315c0 -77 -39 -117 -116 -117zM174 489h-19c-40 0 -60 -20 -60 -61v-319c0 -41 20 -60 60 -60h19c40 0 60 19 60 60v319c0 41 -20 61 -60 61zM146 687l39 -102h-39l-60 102h60z
" />
    <glyph glyph-name="Ohungarumlaut" unicode="&#x150;" horiz-adv-x="362" 
d="M320 117c0 -81 -41 -123 -123 -123h-32c-82 0 -123 42 -123 123v467c0 80 41 122 123 122h32c82 0 123 -42 123 -122v-467zM260 586c0 43 -21 64 -65 64h-28c-44 0 -65 -21 -65 -64v-472c0 -43 21 -64 65 -64h28c44 0 65 21 65 64v472zM127 745l42 82h55l-65 -82h-32z
M205 745l42 82h55l-65 -82h-32z" />
    <glyph glyph-name="ohungarumlaut" unicode="&#x151;" horiz-adv-x="328" 
d="M111 585l35 102h55l-59 -102h-31zM188 585l36 102h55l-59 -102h-32zM175 -6h-21c-78 0 -117 40 -117 117v315c0 78 39 117 117 117h21c77 0 116 -39 116 -117v-315c0 -77 -39 -117 -116 -117zM174 489h-19c-40 0 -60 -20 -60 -61v-319c0 -41 20 -60 60 -60h19
c40 0 60 19 60 60v319c0 41 -20 61 -60 61z" />
    <glyph glyph-name="Omacron" unicode="&#x14c;" horiz-adv-x="362" 
d="M90 801h182v-43h-182v43zM320 117c0 -81 -41 -123 -123 -123h-32c-82 0 -123 42 -123 123v467c0 80 41 122 123 122h32c82 0 123 -42 123 -122v-467zM260 586c0 43 -21 64 -65 64h-28c-44 0 -65 -21 -65 -64v-472c0 -43 21 -64 65 -64h28c44 0 65 21 65 64v472z" />
    <glyph glyph-name="omacron" unicode="&#x14d;" horiz-adv-x="328" 
d="M74 650h182v-50h-182v50zM175 -6h-21c-78 0 -117 40 -117 117v315c0 78 39 117 117 117h21c77 0 116 -39 116 -117v-315c0 -77 -39 -117 -116 -117zM174 489h-19c-40 0 -60 -20 -60 -61v-319c0 -41 20 -60 60 -60h19c40 0 60 19 60 60v319c0 41 -20 61 -60 61z" />
    <glyph glyph-name="Oslash" unicode="&#xd8;" horiz-adv-x="362" 
d="M320 117c0 -81 -41 -123 -123 -123h-32c-82 0 -123 42 -123 123v467c0 80 41 122 123 122h32c82 0 123 -42 123 -122v-467zM261 211v345h-1v5l-143 -494c10 -12 27 -17 50 -17h28c44 0 65 21 65 64zM102 143v-4l142 494c-10 11 -27 17 -49 17h-28c-44 0 -65 -21 -65 -64
l-1 -126v-317h1z" />
    <glyph glyph-name="oslash" unicode="&#xf8;" horiz-adv-x="328" 
d="M175 -6h-21c-78 0 -117 40 -117 117v315c0 78 39 117 117 117h21c77 0 116 -39 116 -117v-315c0 -77 -39 -117 -116 -117zM155 489c-40 0 -60 -20 -60 -61v-31l-2 -283h2v-17l119 381c-10 7 -23 11 -40 11h-19zM233 428c0 3 -1 6 -1 9l-117 -378c10 -7 23 -10 40 -10h19
c40 0 59 19 59 60v34l1 280h-1v5z" />
    <glyph glyph-name="Oslash.alt" horiz-adv-x="362" 
d="M320 117c0 -81 -41 -123 -123 -123h-32c-27 0 -49 4 -67 12l-11 -38h-49l22 73c-12 19 -18 45 -18 76v467c0 80 41 122 123 122h32c26 0 48 -4 66 -13l12 39h49l-22 -73c12 -20 18 -45 18 -75v-467zM260 185l1 371h-1v4l-143 -494c11 -11 27 -16 50 -16h28
c44 0 65 21 65 64v71zM102 143v-4l142 495c-11 10 -27 16 -49 16h-28c-44 0 -65 -21 -65 -64v-67l-1 -376h1z" />
    <glyph glyph-name="oslash.alt" horiz-adv-x="328" 
d="M175 -6h-21c-23 0 -43 3 -59 10l-11 -36h-46l21 63c-15 20 -22 46 -22 80v315c0 78 39 117 117 117h21c22 0 41 -4 57 -10l12 36h46l-21 -64c14 -19 22 -45 22 -79v-315c0 -77 -39 -117 -116 -117zM233 428c0 4 0 7 -1 11l-118 -380c10 -7 23 -10 41 -10h19
c40 0 59 19 59 60v21l1 293h-1v5zM174 489h-19c-40 0 -60 -20 -60 -61v-26l-2 -288h2v-16l118 380c-9 7 -22 11 -39 11z" />
    <glyph glyph-name="Oslashacute" unicode="&#x1fe;" horiz-adv-x="362" 
d="M320 117c0 -81 -41 -123 -123 -123h-32c-82 0 -123 42 -123 123v467c0 80 41 122 123 122h32c82 0 123 -42 123 -122v-467zM261 211v345h-1v5l-143 -494c10 -12 27 -17 50 -17h28c44 0 65 21 65 64zM102 143v-4l142 494c-10 11 -27 17 -49 17h-28c-44 0 -65 -21 -65 -64
l-1 -126v-317h1zM162 745l45 82h59l-65 -82h-39z" />
    <glyph glyph-name="oslashacute" unicode="&#x1ff;" horiz-adv-x="328" 
d="M175 -6h-21c-78 0 -117 40 -117 117v315c0 78 39 117 117 117h21c77 0 116 -39 116 -117v-315c0 -77 -39 -117 -116 -117zM155 489c-40 0 -60 -20 -60 -61v-31l-2 -283h2v-17l119 381c-10 7 -23 11 -40 11h-19zM233 428c0 3 -1 6 -1 9l-117 -378c10 -7 23 -10 40 -10h19
c40 0 59 19 59 60v34l1 280h-1v5zM145 585l39 102h59l-60 -102h-38z" />
    <glyph glyph-name="Oslashacute.alt" horiz-adv-x="362" 
d="M320 117c0 -81 -41 -123 -123 -123h-32c-27 0 -49 4 -67 12l-11 -38h-49l22 73c-12 19 -18 45 -18 76v467c0 80 41 122 123 122h32c26 0 48 -4 66 -13l12 39h49l-22 -73c12 -20 18 -45 18 -75v-467zM260 185l1 371h-1v4l-143 -494c11 -11 27 -16 50 -16h28
c44 0 65 21 65 64v71zM102 143v-4l142 495c-11 10 -27 16 -49 16h-28c-44 0 -65 -21 -65 -64v-67l-1 -376h1zM162 745l45 82h59l-65 -82h-39z" />
    <glyph glyph-name="oslashacute.alt" horiz-adv-x="328" 
d="M175 -6h-21c-23 0 -43 3 -59 10l-11 -36h-46l21 63c-15 20 -22 46 -22 80v315c0 78 39 117 117 117h21c22 0 41 -4 57 -10l12 36h46l-21 -64c14 -19 22 -45 22 -79v-315c0 -77 -39 -117 -116 -117zM233 428c0 4 0 7 -1 11l-118 -380c10 -7 23 -10 41 -10h19
c40 0 59 19 59 60v21l1 293h-1v5zM174 489h-19c-40 0 -60 -20 -60 -61v-26l-2 -288h2v-16l118 380c-9 7 -22 11 -39 11zM145 585l39 102h59l-60 -102h-38z" />
    <glyph glyph-name="Otilde" unicode="&#xd5;" horiz-adv-x="362" 
d="M122 836h4c17 0 27 -3 42 -13l39 -29c9 -6 14 -8 20 -8h2c9 0 11 4 11 14v36h39v-51c0 -26 -13 -40 -39 -40h-4c-17 0 -27 3 -42 13l-39 28c-9 6 -13 8 -20 8h-2c-9 0 -11 -4 -11 -14v-35h-39v51c0 26 13 40 39 40zM320 117c0 -81 -41 -123 -123 -123h-32
c-82 0 -123 42 -123 123v467c0 80 41 122 123 122h32c82 0 123 -42 123 -122v-467zM260 586c0 43 -21 64 -65 64h-28c-44 0 -65 -21 -65 -64v-472c0 -43 21 -64 65 -64h28c44 0 65 21 65 64v472z" />
    <glyph glyph-name="otilde" unicode="&#xf5;" horiz-adv-x="328" 
d="M175 -6h-21c-78 0 -117 40 -117 117v315c0 78 39 117 117 117h21c77 0 116 -39 116 -117v-315c0 -77 -39 -117 -116 -117zM174 489h-19c-40 0 -60 -20 -60 -61v-319c0 -41 20 -60 60 -60h19c40 0 60 19 60 60v319c0 41 -20 61 -60 61zM110 681h3c18 0 27 -3 44 -16
l31 -26c10 -8 14 -11 20 -11h2c8 0 10 4 10 14v39h40v-55c0 -27 -14 -41 -39 -41h-4c-18 0 -27 3 -44 17l-31 25c-10 8 -14 11 -20 11h-2c-8 0 -10 -4 -10 -14v-39h-39v55c0 27 14 41 39 41z" />
    <glyph glyph-name="Racute" unicode="&#x154;" horiz-adv-x="354" 
d="M242 334c44 -12 67 -41 67 -99v-235h-60v233c0 50 -24 73 -75 73h-68v-306h-60v700h139c82 0 123 -41 123 -122v-134c0 -65 -25 -95 -66 -110zM248 581c0 43 -21 63 -65 63h-77v-283h69c49 0 73 23 73 72v148zM152 745l45 82h59l-65 -82h-39z" />
    <glyph glyph-name="racute" unicode="&#x155;" horiz-adv-x="206" 
d="M92 585l39 102h59l-60 -102h-38zM42 0v537h57v-54c24 39 50 58 92 59v-65c-40 -3 -67 -14 -92 -39v-438h-57z" />
    <glyph glyph-name="Rcaron" unicode="&#x158;" horiz-adv-x="354" 
d="M263 835l-65 -90h-53l-66 90h40l52 -53l52 53h40zM242 334c44 -12 67 -41 67 -99v-235h-60v233c0 50 -24 73 -75 73h-68v-306h-60v700h139c82 0 123 -41 123 -122v-134c0 -65 -25 -95 -66 -110zM248 581c0 43 -21 63 -65 63h-77v-283h69c49 0 73 23 73 72v148z" />
    <glyph glyph-name="rcaron" unicode="&#x159;" horiz-adv-x="206" 
d="M200 687l-61 -102h-53l-62 102h40l48 -62l48 62h40zM42 0v537h57v-54c24 39 50 58 92 59v-65c-40 -3 -67 -14 -92 -39v-438h-57z" />
    <glyph glyph-name="Rcommaaccent" unicode="&#x156;" horiz-adv-x="354" 
d="M242 334c44 -12 67 -41 67 -99v-235h-60v233c0 50 -24 73 -75 73h-68v-306h-60v700h139c82 0 123 -41 123 -122v-134c0 -65 -25 -95 -66 -110zM248 581c0 43 -21 63 -65 63h-77v-283h69c49 0 73 23 73 72v148zM197 -45v-50c0 -29 -3 -45 -23 -71l-14 -18l-17 11l9 15
c10 17 13 28 14 38h-18v75h49z" />
    <glyph glyph-name="rcommaaccent" unicode="&#x157;" horiz-adv-x="206" 
d="M42 0v537h57v-54c24 39 50 58 92 59v-65c-40 -3 -67 -14 -92 -39v-438h-57zM95 -45v-50c0 -29 -3 -45 -23 -71l-14 -18l-17 11l9 15c10 17 13 28 14 38h-18v75h49z" />
    <glyph glyph-name="Rcommaaccent.alt" horiz-adv-x="354" 
d="M196 -45v-18c0 -33 -12 -67 -21 -85h-36c9 29 13 47 13 84v19h44zM242 334c44 -12 67 -41 67 -99v-235h-60v233c0 50 -24 73 -75 73h-68v-306h-60v700h139c82 0 123 -41 123 -122v-134c0 -65 -25 -95 -66 -110zM248 581c0 43 -21 63 -65 63h-77v-283h69c49 0 73 23 73 72
v148z" />
    <glyph glyph-name="rcommaaccent.alt" horiz-adv-x="206" 
d="M95 -45v-18c0 -33 -12 -67 -21 -85h-36c8 29 12 47 12 84v19h45zM42 0v537h57v-54c24 39 50 58 92 59v-65c-40 -3 -67 -14 -92 -39v-438h-57z" />
    <glyph glyph-name="Sacute" unicode="&#x15a;" horiz-adv-x="345" 
d="M244 346c47 -35 63 -67 63 -125v-106c0 -80 -41 -121 -123 -121h-22c-81 0 -122 41 -122 120v144h59v-146c0 -42 22 -62 65 -62h18c43 0 65 20 65 62v107c0 39 -13 56 -40 77l-103 77c-48 35 -63 70 -63 125v87c0 80 40 121 123 121h19c81 0 122 -41 122 -120v-123h-59
v125c0 42 -21 62 -65 62h-15c-44 0 -65 -20 -65 -62v-89c0 -38 13 -56 40 -77zM154 745l45 82h59l-65 -82h-39z" />
    <glyph glyph-name="sacute" unicode="&#x15b;" horiz-adv-x="316" 
d="M137 585l39 102h59l-60 -102h-38zM222 353v82c0 36 -18 55 -57 55h-14c-38 0 -57 -19 -57 -55v-49c0 -29 10 -46 34 -61l91 -56c43 -27 61 -54 61 -105v-57c0 -73 -38 -113 -114 -113h-16c-76 0 -113 40 -113 112v82h56v-86c0 -36 19 -54 57 -54h17c38 0 56 18 56 54v55
c0 28 -10 46 -34 60l-91 57c-42 27 -60 53 -60 105v51c0 74 37 113 114 113h14c76 0 112 -39 112 -112v-78h-56z" />
    <glyph glyph-name="Scaron" unicode="&#x160;" horiz-adv-x="345" 
d="M244 346c47 -35 63 -67 63 -125v-106c0 -80 -41 -121 -123 -121h-22c-81 0 -122 41 -122 120v144h59v-146c0 -42 22 -62 65 -62h18c43 0 65 20 65 62v107c0 39 -13 56 -40 77l-103 77c-48 35 -63 70 -63 125v87c0 80 40 121 123 121h19c81 0 122 -41 122 -120v-123h-59
v125c0 42 -21 62 -65 62h-15c-44 0 -65 -20 -65 -62v-89c0 -38 13 -56 40 -77zM266 835l-65 -90h-53l-66 90h40l52 -53l52 53h40z" />
    <glyph glyph-name="scaron" unicode="&#x161;" horiz-adv-x="316" 
d="M245 687l-61 -102h-53l-62 102h40l48 -62l48 62h40zM222 353v82c0 36 -18 55 -57 55h-14c-38 0 -57 -19 -57 -55v-49c0 -29 10 -46 34 -61l91 -56c43 -27 61 -54 61 -105v-57c0 -73 -38 -113 -114 -113h-16c-76 0 -113 40 -113 112v82h56v-86c0 -36 19 -54 57 -54h17
c38 0 56 18 56 54v55c0 28 -10 46 -34 60l-91 57c-42 27 -60 53 -60 105v51c0 74 37 113 114 113h14c76 0 112 -39 112 -112v-78h-56z" />
    <glyph glyph-name="Scedilla" unicode="&#x15e;" horiz-adv-x="345" 
d="M244 346c47 -35 63 -67 63 -125v-106c0 -75 -36 -115 -107 -120l-21 -86h-53l36 85c-81 0 -122 41 -122 120v144h59v-146c0 -42 22 -62 65 -62h18c43 0 65 20 65 62v107c0 39 -13 56 -40 77l-103 77c-48 35 -63 70 -63 125v87c0 80 40 121 123 121h19
c81 0 122 -41 122 -120v-123h-59v125c0 42 -21 62 -65 62h-15c-44 0 -65 -20 -65 -62v-89c0 -38 13 -56 40 -77z" />
    <glyph glyph-name="scedilla" unicode="&#x15f;" horiz-adv-x="316" 
d="M222 353v82c0 36 -18 55 -57 55h-14c-38 0 -57 -19 -57 -55v-49c0 -29 10 -46 34 -61l91 -56c43 -27 61 -54 61 -105v-57c0 -69 -34 -108 -101 -112l-21 -86h-53l36 85c-70 3 -104 43 -104 112v82h56v-86c0 -36 19 -54 57 -54h17c38 0 56 18 56 54v55c0 28 -10 46 -34 60
l-91 57c-42 27 -60 53 -60 105v51c0 74 37 113 114 113h14c76 0 112 -39 112 -112v-78h-56z" />
    <glyph glyph-name="Scommaaccent" unicode="&#x218;" horiz-adv-x="345" 
d="M244 346c47 -35 63 -67 63 -125v-106c0 -80 -41 -121 -123 -121h-22c-81 0 -122 41 -122 120v144h59v-146c0 -42 22 -62 65 -62h18c43 0 65 20 65 62v107c0 39 -13 56 -40 77l-103 77c-48 35 -63 70 -63 125v87c0 80 40 121 123 121h19c81 0 122 -41 122 -120v-123h-59
v125c0 42 -21 62 -65 62h-15c-44 0 -65 -20 -65 -62v-89c0 -38 13 -56 40 -77zM199 -45v-50c0 -29 -3 -45 -23 -71l-14 -18l-17 11l9 15c10 17 13 28 14 38h-18v75h49z" />
    <glyph glyph-name="scommaaccent" unicode="&#x219;" horiz-adv-x="316" 
d="M222 353v82c0 36 -18 55 -57 55h-14c-38 0 -57 -19 -57 -55v-49c0 -29 10 -46 34 -61l91 -56c43 -27 61 -54 61 -105v-57c0 -73 -38 -113 -114 -113h-16c-76 0 -113 40 -113 112v82h56v-86c0 -36 19 -54 57 -54h17c38 0 56 18 56 54v55c0 28 -10 46 -34 60l-91 57
c-42 27 -60 53 -60 105v51c0 74 37 113 114 113h14c76 0 112 -39 112 -112v-78h-56zM183 -45v-50c0 -29 -3 -45 -23 -71l-14 -18l-17 11l9 15c10 17 13 28 14 38h-18v75h49z" />
    <glyph glyph-name="Scommaaccent.alt" horiz-adv-x="345" 
d="M198 -45v-18c0 -33 -12 -67 -21 -85h-36c9 29 13 47 13 84v19h44zM244 346c47 -35 63 -67 63 -125v-106c0 -80 -41 -121 -123 -121h-22c-81 0 -122 41 -122 120v144h59v-146c0 -42 22 -62 65 -62h18c43 0 65 20 65 62v107c0 39 -13 56 -40 77l-103 77
c-48 35 -63 70 -63 125v87c0 80 40 121 123 121h19c81 0 122 -41 122 -120v-123h-59v125c0 42 -21 62 -65 62h-15c-44 0 -65 -20 -65 -62v-89c0 -38 13 -56 40 -77z" />
    <glyph glyph-name="scommaaccent.alt" horiz-adv-x="316" 
d="M183 -45v-18c0 -33 -13 -67 -21 -85h-37c9 29 13 47 13 84v19h45zM222 353v82c0 36 -18 55 -57 55h-14c-38 0 -57 -19 -57 -55v-49c0 -29 10 -46 34 -61l91 -56c43 -27 61 -54 61 -105v-57c0 -73 -38 -113 -114 -113h-16c-76 0 -113 40 -113 112v82h56v-86
c0 -36 19 -54 57 -54h17c38 0 56 18 56 54v55c0 28 -10 46 -34 60l-91 57c-42 27 -60 53 -60 105v51c0 74 37 113 114 113h14c76 0 112 -39 112 -112v-78h-56z" />
    <glyph glyph-name="Tcaron" unicode="&#x164;" horiz-adv-x="304" 
d="M245 835l-65 -90h-53l-66 90h40l52 -53l52 53h40zM182 0h-60v644h-110v56h280v-56h-110v-644z" />
    <glyph glyph-name="tcaron" unicode="&#x165;" horiz-adv-x="190" 
d="M151 592v117h47l-19 -117h-28zM118 484v-484h-58v484h-39v53h39v90h58v-90h62v-53h-62z" />
    <glyph glyph-name="Tcommaaccent" unicode="&#x162;" horiz-adv-x="304" 
d="M182 0h-60v644h-110v56h280v-56h-110v-644zM178 -45v-50c0 -29 -3 -45 -23 -71l-14 -18l-17 11l9 15c10 17 13 28 14 38h-18v75h49z" />
    <glyph glyph-name="Tcommaaccent" unicode="&#x21a;" horiz-adv-x="304" 
d="M182 0h-60v644h-110v56h280v-56h-110v-644zM178 -45v-50c0 -29 -3 -45 -23 -71l-14 -18l-17 11l9 15c10 17 13 28 14 38h-18v75h49z" />
    <glyph glyph-name="tcommaaccent" unicode="&#x163;" horiz-adv-x="191" 
d="M118 484v-484h-58v484h-39v53h39v90h58v-90h62v-53h-62zM116 -45v-50c0 -29 -3 -45 -23 -71l-14 -18l-17 11l9 15c10 17 13 28 14 38h-18v75h49z" />
    <glyph glyph-name="tcommaaccent" unicode="&#x21b;" horiz-adv-x="191" 
d="M118 484v-484h-58v484h-39v53h39v90h58v-90h62v-53h-62zM116 -45v-50c0 -29 -3 -45 -23 -71l-14 -18l-17 11l9 15c10 17 13 28 14 38h-18v75h49z" />
    <glyph glyph-name="Tcommaaccent.alt" horiz-adv-x="304" 
d="M177 -45v-18c0 -33 -12 -67 -21 -85h-36c9 29 13 47 13 84v19h44zM182 0h-60v644h-110v56h280v-56h-110v-644z" />
    <glyph glyph-name="tcommaaccent.alt" horiz-adv-x="193" 
d="M116 -45v-18c0 -33 -13 -67 -22 -85h-36c9 29 13 47 13 84v19h45zM118 484v-484h-58v484h-39v53h39v90h58v-90h62v-53h-62z" />
    <glyph glyph-name="Uacute" unicode="&#xda;" horiz-adv-x="361" 
d="M161 745l45 82h59l-65 -82h-39zM317 700v-583c0 -81 -41 -123 -124 -123h-26c-82 0 -123 42 -123 123v583h60v-585c0 -44 22 -65 66 -65h21c44 0 66 21 66 65v585h60z" />
    <glyph glyph-name="uacute" unicode="&#xfa;" 
d="M145 585l39 102h59l-60 -102h-38zM290 537v-537h-58v37c-29 -24 -57 -43 -99 -43h-3c-60 0 -90 33 -90 92v451h58v-440c0 -33 16 -48 49 -48h2c27 0 50 10 83 33v455h58z" />
    <glyph glyph-name="Ubreve" unicode="&#x16c;" horiz-adv-x="361" 
d="M97 807v17h42v-13c0 -24 14 -32 37 -32h10c23 0 36 8 36 32v13h43v-17c0 -46 -26 -68 -76 -68h-16c-50 0 -76 22 -76 68zM317 700v-583c0 -81 -41 -123 -124 -123h-26c-82 0 -123 42 -123 123v583h60v-585c0 -44 22 -65 66 -65h21c44 0 66 21 66 65v585h60z" />
    <glyph glyph-name="ubreve" unicode="&#x16d;" 
d="M290 537v-537h-58v37c-29 -24 -57 -43 -99 -43h-3c-60 0 -90 33 -90 92v451h58v-440c0 -33 16 -48 49 -48h2c27 0 50 10 83 33v455h58zM84 657v27h43v-27c0 -25 13 -34 36 -34h6c23 0 36 9 36 34v27h43v-27c0 -52 -26 -75 -76 -75h-12c-50 0 -76 23 -76 75z" />
    <glyph glyph-name="Ucircumflex" unicode="&#xdb;" horiz-adv-x="361" 
d="M317 700v-583c0 -81 -41 -123 -124 -123h-26c-82 0 -123 42 -123 123v583h60v-585c0 -44 22 -65 66 -65h21c44 0 66 21 66 65v585h60zM207 835l65 -90h-40l-52 52l-52 -52h-40l66 90h53z" />
    <glyph glyph-name="ucircumflex" unicode="&#xfb;" 
d="M192 687l61 -102h-40l-48 61l-48 -61h-40l62 102h53zM290 537v-537h-58v37c-29 -24 -57 -43 -99 -43h-3c-60 0 -90 33 -90 92v451h58v-440c0 -33 16 -48 49 -48h2c27 0 50 10 83 33v455h58z" />
    <glyph glyph-name="Udieresis" unicode="&#xdc;" horiz-adv-x="361" 
d="M210 745v69h51v-69h-51zM151 814v-69h-51v69h51zM317 700v-583c0 -81 -41 -123 -124 -123h-26c-82 0 -123 42 -123 123v583h60v-585c0 -44 22 -65 66 -65h21c44 0 66 21 66 65v585h60z" />
    <glyph glyph-name="udieresis" unicode="&#xfc;" 
d="M195 585v84h50v-84h-50zM135 669v-84h-50v84h50zM290 537v-537h-58v37c-29 -24 -57 -43 -99 -43h-3c-60 0 -90 33 -90 92v451h58v-440c0 -33 16 -48 49 -48h2c27 0 50 10 83 33v455h58z" />
    <glyph glyph-name="Ugrave" unicode="&#xd9;" horiz-adv-x="361" 
d="M156 827l45 -82h-39l-66 82h60zM317 700v-583c0 -81 -41 -123 -124 -123h-26c-82 0 -123 42 -123 123v583h60v-585c0 -44 22 -65 66 -65h21c44 0 66 21 66 65v585h60z" />
    <glyph glyph-name="ugrave" unicode="&#xf9;" 
d="M290 537v-537h-58v37c-29 -24 -57 -43 -99 -43h-3c-60 0 -90 33 -90 92v451h58v-440c0 -33 16 -48 49 -48h2c27 0 50 10 83 33v455h58zM147 687l39 -102h-39l-60 102h60z" />
    <glyph glyph-name="Uhungarumlaut" unicode="&#x170;" horiz-adv-x="361" 
d="M317 700v-583c0 -81 -41 -123 -124 -123h-26c-82 0 -123 42 -123 123v583h60v-585c0 -44 22 -65 66 -65h21c44 0 66 21 66 65v585h60zM126 745l42 82h55l-65 -82h-32zM204 745l42 82h55l-65 -82h-32z" />
    <glyph glyph-name="uhungarumlaut" unicode="&#x171;" 
d="M290 537v-537h-58v37c-29 -24 -57 -43 -99 -43h-3c-60 0 -90 33 -90 92v451h58v-440c0 -33 16 -48 49 -48h2c27 0 50 10 83 33v455h58zM111 585l35 102h55l-59 -102h-31zM188 585l36 102h55l-59 -102h-32z" />
    <glyph glyph-name="Umacron" unicode="&#x16a;" horiz-adv-x="361" 
d="M89 801h182v-43h-182v43zM317 700v-583c0 -81 -41 -123 -124 -123h-26c-82 0 -123 42 -123 123v583h60v-585c0 -44 22 -65 66 -65h21c44 0 66 21 66 65v585h60z" />
    <glyph glyph-name="umacron" unicode="&#x16b;" 
d="M290 537v-537h-58v37c-29 -24 -57 -43 -99 -43h-3c-60 0 -90 33 -90 92v451h58v-440c0 -33 16 -48 49 -48h2c27 0 50 10 83 33v455h58zM74 650h182v-50h-182v50z" />
    <glyph glyph-name="Uogonek" unicode="&#x172;" horiz-adv-x="361" 
d="M317 700v-583c0 -79 -39 -120 -117 -123l-3 -7c-7 -12 -13 -25 -13 -34v-2c0 -9 4 -12 13 -12h26v-38h-38c-33 0 -46 14 -46 40v5c0 14 8 30 19 48c-76 3 -114 45 -114 123v583h60v-585c0 -44 22 -65 66 -65h21c44 0 66 21 66 65v585h60z" />
    <glyph glyph-name="uogonek" unicode="&#x173;" 
d="M290 537v-537h-7l-7 -13c-7 -12 -13 -25 -13 -34v-2c0 -9 4 -12 13 -12h26v-38h-38c-33 0 -46 14 -46 40v5c0 15 9 32 21 51l2 3h-9v37c-29 -24 -57 -43 -99 -43h-3c-60 0 -90 33 -90 92v451h58v-440c0 -33 16 -48 49 -48h2c27 0 50 10 83 33v455h58z" />
    <glyph glyph-name="Uring" unicode="&#x16e;" horiz-adv-x="361" 
d="M317 700v-583c0 -81 -41 -123 -124 -123h-26c-82 0 -123 42 -123 123v583h60v-585c0 -44 22 -65 66 -65h21c44 0 66 21 66 65v585h60zM272 798v-5c0 -32 -20 -49 -60 -49h-64c-40 0 -60 17 -60 49v5c0 32 20 49 60 49h64c40 0 60 -17 60 -49zM251 794v3
c0 22 -12 31 -42 31h-58c-30 0 -42 -9 -42 -31v-3c0 -22 12 -31 42 -31h58c30 0 42 9 42 31z" />
    <glyph glyph-name="uring" unicode="&#x16f;" 
d="M245 640v-5c0 -33 -18 -51 -61 -51h-38c-43 0 -61 18 -61 51v5c0 33 18 51 61 51h38c43 0 61 -18 61 -51zM224 635v5c0 22 -11 32 -43 32h-32c-32 0 -43 -10 -43 -32v-5c0 -22 11 -32 44 -32h31c32 0 43 10 43 32zM290 537v-537h-58v37c-29 -24 -57 -43 -99 -43h-3
c-60 0 -90 33 -90 92v451h58v-440c0 -33 16 -48 49 -48h2c27 0 50 10 83 33v455h58z" />
    <glyph glyph-name="Wacute" unicode="&#x1e82;" horiz-adv-x="537" 
d="M240 700h59l75 -615l76 615h58l-95 -700h-76l-69 554l-68 -554h-76l-95 700h61l74 -618zM248 745l45 82h59l-65 -82h-39z" />
    <glyph glyph-name="wacute" unicode="&#x1e83;" horiz-adv-x="459" 
d="M166 -1h-59l-87 538h57l59 -434l66 434h56l66 -433l58 433h55l-85 -538h-59l-63 422zM210 585l39 102h59l-60 -102h-38z" />
    <glyph glyph-name="Wcircumflex" unicode="&#x174;" horiz-adv-x="537" 
d="M299 700l75 -615l76 615h58l-95 -700h-76l-69 554l-68 -554h-76l-95 700h61l74 -618l76 618h59zM294 835l65 -90h-40l-52 52l-52 -52h-40l66 90h53z" />
    <glyph glyph-name="wcircumflex" unicode="&#x175;" horiz-adv-x="459" 
d="M258 537l66 -433l58 433h55l-85 -538h-59l-63 422l-64 -422h-59l-87 538h57l59 -434l66 434h56zM257 687l61 -102h-40l-48 61l-48 -61h-40l62 102h53z" />
    <glyph glyph-name="Wdieresis" unicode="&#x1e84;" horiz-adv-x="537" 
d="M299 700l75 -615l76 615h58l-95 -700h-76l-69 554l-68 -554h-76l-95 700h61l74 -618l76 618h59zM238 814v-69h-51v69h51zM297 745v69h51v-69h-51z" />
    <glyph glyph-name="wdieresis" unicode="&#x1e85;" horiz-adv-x="459" 
d="M258 537l66 -433l58 433h55l-85 -538h-59l-63 422l-64 -422h-59l-87 538h57l59 -434l66 434h56zM260 585v84h50v-84h-50zM200 669v-84h-50v84h50z" />
    <glyph glyph-name="Wgrave" unicode="&#x1e80;" horiz-adv-x="537" 
d="M299 700l75 -615l76 615h58l-95 -700h-76l-69 554l-68 -554h-76l-95 700h61l74 -618l76 618h59zM244 827l45 -82h-39l-66 82h60z" />
    <glyph glyph-name="wgrave" unicode="&#x1e81;" horiz-adv-x="459" 
d="M258 537l66 -433l58 433h55l-85 -538h-59l-63 422l-64 -422h-59l-87 538h57l59 -434l66 434h56zM211 687l39 -102h-39l-60 102h60z" />
    <glyph glyph-name="Yacute" unicode="&#xdd;" horiz-adv-x="315" 
d="M303 700l-115 -458v-242h-60v240l-116 460h62l84 -371l86 371h59zM139 745l45 82h59l-65 -82h-39z" />
    <glyph glyph-name="yacute" unicode="&#xfd;" horiz-adv-x="310" 
d="M160 -110h-56l24 111l-109 536h58l79 -428l79 428h56zM137 585l39 102h59l-60 -102h-38z" />
    <glyph glyph-name="yacute.alt" horiz-adv-x="310" 
d="M160 -110h-56l24 111l-109 536h58l79 -428l79 428h56zM137 585l39 102h59l-60 -102h-38z" />
    <glyph glyph-name="Ycircumflex" unicode="&#x176;" horiz-adv-x="315" 
d="M303 700l-115 -458v-242h-60v240l-116 460h62l84 -371l86 371h59zM186 835l65 -90h-40l-52 52l-52 -52h-40l66 90h53z" />
    <glyph glyph-name="ycircumflex" unicode="&#x177;" horiz-adv-x="310" 
d="M160 -110h-56l24 111l-109 536h58l79 -428l79 428h56zM185 687l61 -102h-40l-48 61l-48 -61h-40l62 102h53z" />
    <glyph glyph-name="ycircumflex.alt" horiz-adv-x="310" 
d="M160 -110h-56l24 111l-109 536h58l79 -428l79 428h56zM185 687l61 -102h-40l-48 61l-48 -61h-40l62 102h53z" />
    <glyph glyph-name="Ydieresis" unicode="&#x178;" horiz-adv-x="315" 
d="M303 700l-115 -458v-242h-60v240l-116 460h62l84 -371l86 371h59zM129 814v-69h-51v69h51zM188 745v69h51v-69h-51z" />
    <glyph glyph-name="ydieresis" unicode="&#xff;" horiz-adv-x="310" 
d="M160 -110h-56l24 111l-109 536h58l79 -428l79 428h56zM128 669v-84h-50v84h50zM188 585v84h50v-84h-50z" />
    <glyph glyph-name="ydieresis.alt" horiz-adv-x="310" 
d="M160 -110h-56l24 111l-109 536h58l79 -428l79 428h56zM128 669v-84h-50v84h50zM188 585v84h50v-84h-50z" />
    <glyph glyph-name="Ygrave" unicode="&#x1ef2;" horiz-adv-x="315" 
d="M303 700l-115 -458v-242h-60v240l-116 460h62l84 -371l86 371h59zM134 827l45 -82h-39l-66 82h60z" />
    <glyph glyph-name="ygrave" unicode="&#x1ef3;" horiz-adv-x="310" 
d="M160 -110h-56l24 111l-109 536h58l79 -428l79 428h56zM139 687l39 -102h-39l-60 102h60z" />
    <glyph glyph-name="ygrave.alt" horiz-adv-x="310" 
d="M160 -110h-56l24 111l-109 536h58l79 -428l79 428h56zM139 687l39 -102h-39l-60 102h60z" />
    <glyph glyph-name="Zacute" unicode="&#x179;" horiz-adv-x="283" 
d="M197 644h-167v56h227v-55l-170 -589h173v-56h-234v55zM124 745l45 82h59l-65 -82h-39z" />
    <glyph glyph-name="zacute" unicode="&#x17a;" horiz-adv-x="252" 
d="M107 585l39 102h59l-60 -102h-38zM171 484h-148v53h207v-52l-152 -431h153v-54h-211v52z" />
    <glyph glyph-name="Zcaron" unicode="&#x17d;" horiz-adv-x="283" 
d="M235 835l-65 -90h-53l-66 90h40l52 -53l52 53h40zM197 644h-167v56h227v-55l-170 -589h173v-56h-234v55z" />
    <glyph glyph-name="zcaron" unicode="&#x17e;" horiz-adv-x="252" 
d="M215 687l-61 -102h-53l-62 102h40l48 -62l48 62h40zM171 484h-148v53h207v-52l-152 -431h153v-54h-211v52z" />
    <glyph glyph-name="Zdotaccent" unicode="&#x17b;" horiz-adv-x="283" 
d="M169 809v-64h-52v64h52zM197 644h-167v56h227v-55l-170 -589h173v-56h-234v55z" />
    <glyph glyph-name="zdotaccent" unicode="&#x17c;" horiz-adv-x="252" 
d="M171 484h-148v53h207v-52l-152 -431h153v-54h-211v52zM153 664v-79h-52v79h52z" />
    <glyph glyph-name="AE" unicode="&#xc6;" horiz-adv-x="466" 
d="M179 700h251v-56h-150v-259h145v-56h-145v-273h152v-56h-213v132h-110l-28 -132h-59zM120 187h99v465z" />
    <glyph glyph-name="ae" unicode="&#xe6;" horiz-adv-x="513" 
d="M346 543h14c77 0 116 -40 116 -117v-180h-190v-137c0 -40 20 -60 61 -60h13c40 0 60 20 60 60v66h56v-64c0 -77 -39 -117 -116 -117h-14c-49 0 -83 16 -102 48c-48 -33 -73 -48 -112 -48h-1c-60 0 -88 32 -88 91v105c0 62 22 87 80 108l106 39v95c0 37 -19 57 -58 57h-7
c-39 0 -59 -20 -59 -57v-69h-57v67c0 74 40 113 116 113h8c54 0 72 -20 86 -41c16 25 37 41 88 41zM230 81c-1 4 -1 14 -1 18v184l-82 -30c-34 -13 -46 -29 -46 -64v-93c0 -32 16 -47 47 -47h1c26 0 49 10 81 32zM286 428v-127h133v127c0 40 -21 61 -61 61h-11
c-41 0 -61 -21 -61 -61z" />
    <glyph glyph-name="AEacute" unicode="&#x1fc;" horiz-adv-x="459" 
d="M172 700h251v-56h-150v-259h145v-56h-145v-273h152v-56h-213v132h-110l-28 -132h-59zM113 187h99v465zM232 745l45 82h59l-65 -82h-39z" />
    <glyph glyph-name="aeacute" unicode="&#x1fd;" horiz-adv-x="512" 
d="M346 543h14c77 0 116 -40 116 -117v-180h-190v-137c0 -40 20 -60 61 -60h13c40 0 60 20 60 60v66h56v-64c0 -77 -39 -117 -116 -117h-14c-49 0 -83 16 -102 48c-48 -33 -73 -48 -112 -48h-1c-60 0 -88 32 -88 91v105c0 62 22 87 80 108l106 39v95c0 37 -19 57 -58 57h-7
c-39 0 -59 -20 -59 -57v-69h-57v67c0 74 40 113 116 113h8c54 0 72 -20 86 -41c16 25 37 41 88 41zM230 81c-1 4 -1 14 -1 18v184l-82 -30c-34 -13 -46 -29 -46 -64v-93c0 -32 16 -47 47 -47h1c26 0 49 10 81 32zM286 428v-127h133v127c0 40 -21 61 -61 61h-11
c-41 0 -61 -21 -61 -61zM240 585l39 102h59l-60 -102h-38z" />
    <glyph glyph-name="OE" unicode="&#x152;" horiz-adv-x="498" 
d="M188 700h274v-56h-151v-259h146v-56h-146v-273h153v-56h-276c-94 0 -146 49 -146 143v414c0 94 52 143 146 143zM251 56v588h-60c-56 0 -89 -30 -89 -86v-416c0 -56 33 -86 89 -86h60z" />
    <glyph glyph-name="oe" unicode="&#x153;" horiz-adv-x="517" 
d="M350 543h14c77 0 117 -40 117 -118v-179h-190v-137c0 -41 20 -60 60 -60h13c40 0 60 19 60 60v62h57v-60c0 -77 -40 -117 -117 -117h-14c-50 0 -75 15 -88 41c-14 -26 -39 -41 -87 -41h-21c-78 0 -117 39 -117 116v316c0 77 39 117 117 117h21c49 0 73 -16 87 -42
c13 26 36 42 88 42zM175 488h-21c-40 0 -59 -20 -59 -59v-321c0 -40 19 -59 59 -59h20c39 0 59 19 59 59v321c0 39 -19 59 -58 59zM291 427v-126h132v126c0 41 -20 62 -61 62h-11c-40 0 -60 -21 -60 -62z" />
    <glyph glyph-name="Eth" unicode="&#xd0;" horiz-adv-x="374" 
d="M59 0v328h-49v53h49v319h123c100 0 149 -49 149 -149v-402c0 -100 -49 -149 -149 -149h-123zM119 644v-263h83v-53h-83v-272h60c62 0 92 30 92 93v402c0 63 -30 93 -92 93h-60z" />
    <glyph glyph-name="eth" unicode="&#xf0;" horiz-adv-x="330" 
d="M261 706l-33 -55c49 -24 64 -50 64 -106v-434c0 -77 -40 -117 -116 -117h-22c-77 0 -116 40 -116 117v324c0 65 31 106 100 106h1c39 0 75 -14 98 -37v34c0 42 -10 53 -50 71h-38l8 13l-71 32l25 49l74 -33l22 36h54zM174 488h-18c-41 0 -61 -20 -61 -60v-319
c0 -41 20 -60 61 -60h18c40 0 60 19 60 60v319c0 40 -20 60 -60 60z" />
    <glyph glyph-name="Thorn" unicode="&#xde;" horiz-adv-x="327" 
d="M106 143v-143h-60v700h60v-138h66c81 0 125 -41 125 -122v-171c0 -93 -55 -126 -127 -126h-64zM237 443c0 43 -24 64 -67 64h-64v-309h62c46 0 69 23 69 68v177z" />
    <glyph glyph-name="thorn" unicode="&#xfe;" horiz-adv-x="332" 
d="M42 710h57v-210c26 23 56 43 98 43h2c63 0 95 -38 95 -99v-351c0 -61 -32 -99 -95 -99h-2c-42 0 -72 20 -98 43v-147h-57v820zM99 453v-367c29 -25 54 -37 83 -37c35 0 54 15 54 50v339c0 35 -19 50 -54 50c-29 0 -54 -12 -83 -35z" />
    <glyph glyph-name="schwa" unicode="&#x259;" horiz-adv-x="321" 
d="M36 110v180h190v137c0 40 -20 60 -61 60h-12c-40 0 -61 -20 -61 -60v-62h-56v60c0 77 40 117 117 117h14c78 0 117 -40 117 -117v-315c0 -77 -39 -117 -117 -117h-14c-77 0 -117 40 -117 117zM165 47c41 0 61 21 61 61v127h-132v-127c0 -40 20 -61 60 -61h11z" />
    <glyph glyph-name="germandbls" unicode="&#xdf;" horiz-adv-x="335" 
d="M297 271v-154c0 -77 -40 -117 -117 -117h-45v54h44c41 0 61 20 61 61v154c0 45 -20 67 -66 67h-38v54h36c46 0 66 22 66 67v136c0 42 -20 62 -62 62h-15c-41 0 -62 -20 -62 -62v-593h-57v592c0 77 41 118 118 118h17c77 0 118 -41 118 -118v-119c0 -61 -23 -93 -62 -106
c43 -11 64 -40 64 -96z" />
    <glyph glyph-name="zero" unicode="0" horiz-adv-x="358" 
d="M316 117c0 -81 -41 -123 -123 -123h-28c-82 0 -123 42 -123 123v467c0 80 41 122 123 122h28c82 0 123 -42 123 -122v-467zM257 586c0 43 -22 64 -65 64h-26c-43 0 -65 -21 -65 -64v-472c0 -43 22 -64 65 -64h26c43 0 65 21 65 64v472z" />
    <glyph glyph-name="one" unicode="1" horiz-adv-x="191" 
d="M135 703v-703h-58v600h-64v44l13 2c36 6 51 17 69 44l9 13h31z" />
    <glyph glyph-name="two" unicode="2" horiz-adv-x="337" 
d="M90 249l119 149c24 30 33 54 33 85v106c0 41 -21 61 -63 61h-18c-42 0 -63 -20 -63 -61v-134h-58v131c0 79 40 120 120 120h22c80 0 120 -41 120 -120v-94c0 -46 -11 -84 -49 -130l-119 -150c-29 -37 -37 -59 -37 -108v-48h206v-56h-265v108c0 55 11 90 52 141z" />
    <glyph glyph-name="three" unicode="3" horiz-adv-x="347" 
d="M248 114v147c0 46 -22 69 -67 69h-75v55h73c45 0 67 23 67 69v132c0 43 -21 64 -63 64h-24c-41 0 -63 -21 -63 -64v-100h-58v98c0 80 40 122 122 122h23c83 0 123 -42 123 -122v-116c0 -62 -23 -93 -63 -106c43 -12 65 -41 65 -97v-148c0 -81 -40 -123 -123 -123h-28
c-81 0 -121 41 -121 121v112h58v-113c0 -43 22 -64 65 -64h24c44 0 65 21 65 64z" />
    <glyph glyph-name="four" unicode="4" horiz-adv-x="332" 
d="M17 140v55l175 505h75v-507h58v-53h-58v-140h-54v140h-196zM213 193v416l-142 -416h142z" />
    <glyph glyph-name="five" unicode="5" horiz-adv-x="343" 
d="M305 324v-207c0 -81 -41 -123 -122 -123h-21c-80 0 -120 41 -120 121v125h59v-126c0 -43 21 -64 64 -64h16c42 0 64 21 64 64v199c0 44 -20 67 -59 67c-34 0 -58 -14 -89 -45h-50v365h250v-56h-194l-2 -246c26 21 54 37 98 37c64 0 106 -41 106 -111z" />
    <glyph glyph-name="six" unicode="6" horiz-adv-x="350" 
d="M101 586v-201c26 15 56 26 94 27h5c74 0 111 -47 111 -111v-184c0 -81 -41 -123 -123 -123h-23c-82 0 -123 42 -123 123v467c0 80 41 122 123 122h24c82 0 120 -39 120 -120v-96h-58v96c0 43 -21 64 -64 64h-22c-42 0 -64 -21 -64 -64zM101 334v-220c0 -43 22 -64 64 -64
h24c42 0 64 21 64 64v176c0 41 -18 66 -67 66c-32 0 -64 -10 -85 -22z" />
    <glyph glyph-name="seven" unicode="7" horiz-adv-x="277" 
d="M196 644h-181v56h238v-54l-145 -646h-57z" />
    <glyph glyph-name="eight" unicode="8" horiz-adv-x="350" 
d="M164 706h22c81 0 123 -42 123 -123v-113c0 -62 -24 -93 -62 -106c42 -12 65 -39 65 -95v-152c0 -81 -41 -123 -123 -123h-28c-82 0 -123 42 -123 123v152c0 56 23 83 65 95c-38 13 -62 44 -62 106v113c0 81 41 123 123 123zM97 265v-152c0 -43 21 -64 64 -64h28
c43 0 64 21 64 64v152c0 46 -23 67 -68 67h-20c-45 0 -68 -21 -68 -67zM166 386h18c45 0 68 23 68 69v132c0 43 -22 64 -66 64h-23c-43 0 -65 -21 -65 -64v-132c0 -46 23 -69 68 -69z" />
    <glyph glyph-name="nine" unicode="9" horiz-adv-x="349" 
d="M184 50c42 0 64 21 64 64v192c-26 -15 -56 -26 -93 -26h-5c-73 0 -111 46 -111 110v194c0 80 41 122 123 122h22c82 0 123 -42 123 -122v-467c0 -81 -41 -123 -123 -123h-22c-83 0 -122 38 -122 120v91h58v-91c0 -43 21 -64 64 -64h22zM248 358v228c0 43 -22 64 -64 64
h-22c-43 0 -64 -21 -64 -64v-185c0 -40 18 -65 66 -65c32 0 63 10 84 22z" />
    <glyph glyph-name="period" unicode="." horiz-adv-x="122" 
d="M91 100v-100h-60v100h60z" />
    <glyph glyph-name="comma" unicode="," horiz-adv-x="122" 
d="M91 100v-68c0 -37 -5 -52 -24 -85l-18 -28l-24 7l11 24c8 20 14 36 16 50h-21v100h60z" />
    <glyph glyph-name="comma.alt" horiz-adv-x="122" 
d="M91 100v-37c0 -49 -4 -76 -31 -147h-45c17 72 19 99 20 149v35h56z" />
    <glyph glyph-name="colon" unicode=":" horiz-adv-x="122" 
d="M91 100v-100h-60v100h60zM91 537v-100h-60v100h60z" />
    <glyph glyph-name="semicolon" unicode=";" horiz-adv-x="122" 
d="M91 100v-68c0 -37 -5 -52 -24 -85l-18 -28l-24 7l11 24c8 20 14 36 16 50h-21v100h60zM91 537v-100h-60v100h60z" />
    <glyph glyph-name="semicolon.alt" horiz-adv-x="122" 
d="M91 537v-100h-60v100h60zM91 100v-37c0 -49 -4 -76 -31 -147h-45c17 72 19 99 20 149v35h56z" />
    <glyph glyph-name="colon.fig" horiz-adv-x="122" 
d="M91 285v-99h-60v99h60zM91 519v-99h-60v99h60z" />
    <glyph glyph-name="ellipsis" unicode="&#x2026;" horiz-adv-x="366" 
d="M91 100v-100h-60v100h60zM212 100v-100h-60v100h60zM334 100v-100h-60v100h60z" />
    <glyph glyph-name="periodcentered" unicode="&#xb7;" horiz-adv-x="122" 
d="M91 344v-100h-60v100h60z" />
    <glyph glyph-name="ampersand" unicode="&#x26;" horiz-adv-x="399" 
d="M338 0l-57 106l-3 -9c-23 -73 -47 -103 -126 -103h-12c-74 0 -111 38 -111 110v153c0 48 10 82 43 111l44 38l-24 45c-20 38 -24 63 -24 103v38c0 75 39 114 114 114h19c75 0 113 -39 113 -112v-108h-58v107c0 38 -20 57 -59 57h-11c-39 0 -59 -19 -59 -57v-39
c0 -27 2 -48 17 -77l127 -242l54 173h56l-74 -232l96 -176h-65zM163 50c35 0 47 18 60 57l20 60l-101 189l-25 -23c-23 -20 -30 -38 -30 -74v-155c0 -36 19 -54 55 -54h21z" />
    <glyph glyph-name="ampersand.alt" horiz-adv-x="357" 
d="M344 332h-38v-215c0 -81 -42 -123 -124 -123h-17c-82 0 -124 42 -124 123v152c0 55 22 82 65 93c-39 14 -63 44 -63 104v118c0 80 41 122 124 122h15c82 0 123 -41 123 -121v-111h-57v112c0 43 -22 64 -64 64h-17c-43 0 -65 -21 -65 -64v-135c0 -45 23 -66 68 -66h174
v-53zM100 266v-152c0 -43 23 -64 66 -64h18c43 0 65 21 65 64v218h-81c-45 0 -68 -21 -68 -66z" />
    <glyph glyph-name="exclam" unicode="!" horiz-adv-x="155" 
d="M106 473l-17 -292h-23l-18 292v227h58v-227zM107 100v-100h-59v100h59z" />
    <glyph glyph-name="exclamdown" unicode="&#xa1;" horiz-adv-x="155" 
d="M89 519l17 -292v-227h-58v227l18 292h23zM107 700v-100h-59v100h59z" />
    <glyph glyph-name="question" unicode="?" horiz-adv-x="309" 
d="M168 386l27 30c20 23 28 38 28 64v108c0 42 -22 62 -63 62h-17c-41 0 -61 -20 -61 -61v-131h-57v128c0 79 41 120 122 120h14c81 0 121 -41 121 -121v-101c0 -47 -13 -62 -52 -107l-35 -42c-19 -23 -19 -35 -19 -64v-95h-52v112c0 48 10 60 44 98zM179 100v-100h-59v100
h59z" />
    <glyph glyph-name="questiondown" unicode="&#xbf;" horiz-adv-x="309" 
d="M140 315l-27 -30c-20 -23 -28 -38 -28 -64v-108c0 -42 22 -62 63 -62h17c41 0 61 20 61 61v131h57v-128c0 -79 -41 -120 -122 -120h-14c-81 0 -121 41 -121 121v101c0 47 13 62 52 107l35 42c19 23 19 35 19 64v95h52v-112c0 -48 -10 -60 -44 -98zM129 601v100h59v-100
h-59z" />
    <glyph glyph-name="quotedblleft" unicode="&#x201c;" horiz-adv-x="227" 
d="M134 515v67c0 42 5 57 24 92l17 31l25 -7l-11 -26c-9 -22 -14 -41 -16 -57h21v-100h-60zM29 515v67c0 42 5 57 24 92l18 31l24 -7l-11 -26c-9 -22 -14 -41 -16 -57h21v-100h-60z" />
    <glyph glyph-name="quotedblleft.alt" horiz-adv-x="227" 
d="M135 517v36c0 49 2 77 27 146h48c-16 -69 -18 -98 -18 -148v-34h-57zM30 517v36c0 49 5 77 31 146h47c-18 -69 -21 -98 -21 -148v-34h-57z" />
    <glyph glyph-name="quotedblright" unicode="&#x201d;" horiz-adv-x="227" 
d="M92 700v-67c0 -42 -5 -57 -24 -92l-17 -31l-25 7l11 26c9 22 14 41 16 57h-21v100h60zM197 700v-67c0 -42 -5 -57 -24 -92l-18 -31l-24 7l11 26c9 22 14 41 16 57h-21v100h60z" />
    <glyph glyph-name="quotedblright.alt" horiz-adv-x="227" 
d="M92 700v-36c0 -49 -2 -77 -27 -146h-48c16 69 18 98 18 148v34h57zM197 700v-36c0 -49 -5 -77 -31 -146h-47c18 69 21 98 21 148v34h57z" />
    <glyph glyph-name="quoteleft" unicode="&#x2018;" horiz-adv-x="122" 
d="M29 515v67c0 42 5 57 24 92l17 31l25 -7l-11 -26c-9 -22 -14 -41 -16 -57h21v-100h-60z" />
    <glyph glyph-name="quoteleft.alt" horiz-adv-x="122" 
d="M31 517v36c0 49 5 77 31 146h45c-17 -69 -20 -98 -20 -148v-34h-56z" />
    <glyph glyph-name="quoteright" unicode="&#x2019;" horiz-adv-x="122" 
d="M92 700v-67c0 -42 -5 -57 -24 -92l-17 -31l-25 7l11 26c9 22 14 41 16 57h-21v100h60z" />
    <glyph glyph-name="quoteright.alt" horiz-adv-x="122" 
d="M92 700v-36c0 -49 -5 -77 -31 -146h-45c17 69 20 98 20 148v34h56z" />
    <glyph glyph-name="quotedblbase" unicode="&#x201e;" horiz-adv-x="227" 
d="M92 100v-67c0 -42 -5 -57 -24 -92l-17 -31l-25 7l11 26c9 22 14 41 16 57h-21v100h60zM197 100v-67c0 -42 -5 -57 -24 -92l-18 -31l-24 7l11 26c9 22 14 41 16 57h-21v100h60z" />
    <glyph glyph-name="quotedblbase.alt" horiz-adv-x="227" 
d="M106 100v-36c0 -49 -2 -77 -27 -146h-48c16 69 18 98 18 148v34h57zM211 100v-36c0 -49 -5 -77 -31 -146h-47c18 69 21 98 21 148v34h57z" />
    <glyph glyph-name="quotesinglbase" unicode="&#x201a;" horiz-adv-x="122" 
d="M92 100v-67c0 -42 -5 -57 -24 -92l-17 -31l-25 7l11 26c9 22 14 41 16 57h-21v100h60z" />
    <glyph glyph-name="quotesinglbase.alt" horiz-adv-x="122" 
d="M92 100v-36c0 -49 -5 -77 -31 -146h-45c17 69 20 98 20 148v34h56z" />
    <glyph glyph-name="guillemotleft" unicode="&#xab;" horiz-adv-x="233" 
d="M15 280l56 152h47l-48 -152l48 -152h-45zM115 280l50 152h47l-42 -152l42 -152h-45z" />
    <glyph glyph-name="guillemotleft.cap" horiz-adv-x="235" 
d="M14 356l59 162h47l-50 -162l51 -162h-45zM115 356l52 162h47l-44 -162l44 -162h-45z" />
    <glyph glyph-name="guillemotright" unicode="&#xbb;" horiz-adv-x="233" 
d="M161 432l56 -152l-58 -152h-45l48 152l-48 152h47zM67 432l50 -152l-52 -152h-45l42 152l-42 152h47z" />
    <glyph glyph-name="guillemotright.cap" horiz-adv-x="235" 
d="M161 518l59 -162l-62 -162h-45l51 162l-50 162h47zM67 518l52 -162l-54 -162h-45l44 162l-44 162h47z" />
    <glyph glyph-name="guilsinglleft" unicode="&#x2039;" horiz-adv-x="151" 
d="M15 280l63 152h52l-56 -152l56 -152h-49z" />
    <glyph glyph-name="guilsinglleft.cap" horiz-adv-x="160" 
d="M14 356l73 162h51l-64 -162l64 -162h-49z" />
    <glyph glyph-name="guilsinglright" unicode="&#x203a;" horiz-adv-x="151" 
d="M72 432l63 -152l-66 -152h-49l56 152l-56 152h52z" />
    <glyph glyph-name="guilsinglright.cap" horiz-adv-x="160" 
d="M72 518l73 -162l-75 -162h-49l64 162l-64 162h51z" />
    <glyph glyph-name="hyphen" unicode="-" horiz-adv-x="196" 
d="M17 307h162v-54h-162v54z" />
    <glyph glyph-name="endash" unicode="&#x2013;" horiz-adv-x="366" 
d="M22 305h322v-51h-322v51z" />
    <glyph glyph-name="emdash" unicode="&#x2014;" horiz-adv-x="567" 
d="M22 305h512v-51h-512v51z" />
    <glyph glyph-name="hyphen.cap" horiz-adv-x="206" 
d="M22 383h162v-54h-162v54z" />
    <glyph glyph-name="endash.cap" horiz-adv-x="366" 
d="M22 382h322v-52h-322v52z" />
    <glyph glyph-name="emdash.cap" horiz-adv-x="572" 
d="M22 382h512v-52h-512v52z" />
    <glyph glyph-name="slash" unicode="/" horiz-adv-x="211" 
d="M196 732l-130 -764h-51l130 764h51z" />
    <glyph glyph-name="backslash" unicode="\" horiz-adv-x="211" 
d="M145 -32l-130 764h51l130 -764h-51z" />
    <glyph glyph-name="bar" unicode="|" horiz-adv-x="270" 
d="M160 763v-830h-49v830h49z" />
    <glyph glyph-name="parenleft" unicode="(" horiz-adv-x="204" 
d="M187 -24l-38 -17c-85 87 -102 131 -102 282v218c0 151 17 195 102 282l38 -17c-71 -91 -86 -125 -86 -264v-220c0 -139 15 -173 86 -264z" />
    <glyph glyph-name="parenright" unicode=")" horiz-adv-x="204" 
d="M16 724l38 17c85 -87 103 -131 103 -282v-218c0 -151 -18 -195 -103 -282l-38 17c71 91 86 125 86 264v220c0 139 -15 173 -86 264z" />
    <glyph glyph-name="bracketleft" unicode="[" horiz-adv-x="209" 
d="M200 15v-47h-147v764h147v-47h-93v-670h93z" />
    <glyph glyph-name="bracketright" unicode="]" horiz-adv-x="209" 
d="M9 -32v47h93v670h-93v47h147v-764h-147z" />
    <glyph glyph-name="braceleft" unicode="{" horiz-adv-x="248" 
d="M90 191v85c0 34 -12 43 -43 50l-26 5v40l26 4c32 7 43 17 43 50v84c0 124 14 149 102 231l38 -16c-79 -89 -85 -107 -85 -214v-60c0 -60 -20 -87 -59 -99c42 -12 59 -36 59 -90v-71c0 -107 6 -125 85 -214l-38 -16c-88 82 -102 107 -102 231z" />
    <glyph glyph-name="braceright" unicode="}" horiz-adv-x="248" 
d="M157 276v-85c0 -124 -14 -149 -102 -231l-38 16c79 89 85 107 85 214v71c0 54 17 78 59 90c-39 12 -59 39 -59 99v60c0 107 -6 125 -85 214l38 16c88 -82 102 -107 102 -231v-84c0 -33 11 -43 43 -50l26 -4v-40l-26 -5c-31 -7 -43 -16 -43 -50z" />
    <glyph glyph-name="at" unicode="@" horiz-adv-x="499" 
d="M387 34h-21c-39 0 -55 13 -60 43c-23 -26 -55 -43 -85 -43c-47 0 -71 27 -71 74v103c0 48 14 69 59 86l90 32v89c0 31 -13 47 -45 47h-5c-32 0 -48 -15 -48 -47v-59h-47v61c0 60 31 92 93 92h9c61 0 91 -32 91 -92v-326c0 -23 8 -32 31 -32h9c26 0 37 15 37 49v342
c0 103 -31 136 -124 136h-101c-93 0 -124 -33 -124 -136v-358c0 -103 31 -136 124 -136h232v-28h-232c-114 0 -153 41 -153 164v358c0 121 41 164 153 164h101c112 0 153 -43 153 -164v-344c0 -54 -22 -75 -66 -75zM235 80c21 0 41 12 64 28v174l-67 -25
c-27 -10 -34 -23 -34 -49v-88c0 -27 12 -40 37 -40z" />
    <glyph glyph-name="at.alt" horiz-adv-x="499" 
d="M387 111h-21c-39 0 -55 12 -60 42c-23 -26 -55 -43 -85 -43c-47 0 -71 28 -71 74v103c0 48 14 69 59 86l90 32v89c0 31 -13 47 -45 47h-5c-32 0 -48 -15 -48 -47v-59h-47v61c0 61 31 92 93 92h9c61 0 91 -32 91 -92v-325c0 -24 8 -33 31 -33h9c26 0 37 15 37 49v354
c0 103 -31 136 -124 136h-101c-93 0 -124 -33 -124 -136v-382c0 -103 31 -136 124 -136h232v-28h-232c-114 0 -153 40 -153 164v382c0 121 41 164 153 164h101c112 0 154 -43 154 -164v-356c0 -54 -23 -74 -67 -74zM235 156c21 0 41 12 64 28v174l-67 -25
c-27 -10 -34 -22 -34 -49v-88c0 -27 12 -40 37 -40z" />
    <glyph glyph-name="copyright" unicode="&#xa9;" horiz-adv-x="496" 
d="M450 542v-384c0 -117 -45 -164 -153 -164h-98c-108 0 -153 47 -153 164v384c0 117 45 164 153 164h98c108 0 153 -47 153 -164zM428 158v384c0 103 -38 143 -131 143h-98c-93 0 -131 -40 -131 -143v-384c0 -102 38 -143 131 -143h98c93 0 131 41 131 143zM300 279h47
v-101c0 -58 -27 -86 -90 -86h-14c-63 0 -90 28 -90 86v345c0 57 27 86 90 86h13c62 0 90 -29 90 -86v-91h-47v87c0 28 -12 43 -43 43h-12c-31 0 -43 -15 -43 -43v-337c0 -29 12 -43 43 -43h13c31 0 43 14 43 43v97z" />
    <glyph glyph-name="published" unicode="&#x2117;" horiz-adv-x="496" 
d="M450 542v-384c0 -117 -45 -164 -153 -164h-98c-108 0 -153 47 -153 164v384c0 117 45 164 153 164h98c108 0 153 -47 153 -164zM428 158v384c0 103 -38 143 -131 143h-98c-93 0 -131 -40 -131 -143v-384c0 -102 38 -143 131 -143h98c93 0 131 41 131 143zM210 288v-194
h-49v513h90c69 0 97 -26 97 -87v-142c0 -62 -30 -90 -97 -90h-41zM299 516c0 33 -12 44 -50 44h-39v-224h39c37 0 50 13 50 45v135z" />
    <glyph glyph-name="registered.alt" horiz-adv-x="496" 
d="M450 542v-384c0 -117 -45 -164 -153 -164h-98c-108 0 -153 47 -153 164v384c0 117 45 164 153 164h98c108 0 153 -47 153 -164zM428 158v384c0 103 -38 143 -131 143h-98c-93 0 -131 -40 -131 -143v-384c0 -102 38 -143 131 -143h98c93 0 131 41 131 143zM297 329
c36 -8 53 -27 53 -74v-161h-48v157c0 41 -16 56 -60 56h-37v-213h-48v513h92c74 0 100 -26 100 -89v-106c0 -53 -17 -71 -52 -83zM301 514c0 34 -11 46 -53 46h-43v-207h38c42 0 58 14 58 55v106z" />
    <glyph glyph-name="registered" unicode="&#xae;" horiz-adv-x="302" 
d="M272 608v-175c0 -69 -24 -98 -92 -98h-59c-67 0 -91 29 -91 98v175c0 70 24 98 91 98h58c67 0 93 -28 93 -98zM255 433v175c0 58 -20 81 -76 81h-58c-56 0 -74 -23 -74 -81v-175c0 -58 18 -81 74 -81h59c56 0 75 23 75 81zM213 599v-44c0 -28 -12 -38 -31 -44
c21 -4 31 -13 31 -38v-75h-30v71c0 23 -10 29 -35 29h-23v-100h-31v246h57c42 0 62 -13 62 -45zM183 554v39c0 18 -11 24 -33 24h-25v-92h23c25 0 35 8 35 29z" />
    <glyph glyph-name="servicemark" unicode="&#x2120;" horiz-adv-x="446" 
d="M322 396h-33l-48 239v-239h-32v304h50l47 -248l49 248h48v-304h-33v239zM73 507v-54c0 -20 8 -28 27 -28h7c20 0 28 8 28 28v29c0 19 -4 27 -16 35l-52 38c-23 17 -30 32 -30 60v30c0 38 20 58 58 58h18c38 0 57 -20 57 -58v-50h-36v47c0 21 -7 28 -26 28h-7
c-20 0 -28 -7 -28 -28v-21c0 -19 5 -26 16 -35l52 -38c23 -16 30 -31 30 -60v-38c0 -37 -20 -57 -57 -57h-19c-38 0 -58 20 -58 57v57h36z" />
    <glyph glyph-name="trademark" unicode="&#x2122;" horiz-adv-x="421" 
d="M264 396l-48 238l1 -238h-33v304h50l47 -246l50 246h47v-304h-33l1 239l-49 -239h-33zM105 396h-38v270h-52v34h142v-34h-52v-270z" />
    <glyph glyph-name="asterisk" unicode="*" horiz-adv-x="267" 
d="M154 702l-2 -111l98 60h2v-45l-87 -49l87 -49v-45h-2l-99 59l3 -110h-41l2 110l-98 -59h-2v45l87 49l-87 49v45h2l98 -60l-2 111h41z" />
    <glyph glyph-name="dagger" unicode="&#x2020;" horiz-adv-x="234" 
d="M140 348h-46l2 223l-81 -1v45l80 -3l-1 90h46l-2 -90l81 3v-45l-81 1z" />
    <glyph glyph-name="daggerdbl" unicode="&#x2021;" horiz-adv-x="234" 
d="M95 455l1 116l-81 -1v45l80 -3l-1 90h46l-2 -90l81 3v-45l-81 1l1 -116l-1 -116l81 3v-46l-81 2l2 -88h-46l1 88l-80 -2v46l81 -3z" />
    <glyph glyph-name="bullet" unicode="&#x2022;" horiz-adv-x="218" 
d="M162 390v-76c0 -27 -14 -39 -42 -39h-23c-28 0 -41 12 -41 39v76c0 27 13 39 41 39h23c28 0 42 -12 42 -39z" />
    <glyph glyph-name="asciicircum" unicode="^" horiz-adv-x="374" 
d="M213 700l100 -221h-51l-76 167l-74 -167h-51l100 221h52z" />
    <glyph glyph-name="asciitilde" unicode="~" horiz-adv-x="374" 
d="M57 308v50c20 23 48 35 73 35h3c16 0 35 -5 50 -12l20 -8c18 -7 34 -11 45 -11h4c27 0 51 12 72 33v-49c-20 -22 -47 -35 -74 -35h-2c-17 0 -34 5 -54 13l-14 6c-18 7 -33 11 -47 11h-3c-27 0 -52 -10 -73 -33z" />
    <glyph glyph-name="dollar" unicode="$" horiz-adv-x="348" 
d="M244 346c47 -35 63 -67 63 -125v-104c0 -75 -36 -116 -108 -120v-72h-49v72c-73 3 -110 44 -110 118v143h59v-145c0 -42 22 -62 65 -62h18c43 0 65 20 65 62v106c0 39 -13 56 -40 77l-103 77c-48 35 -63 70 -63 125v85c0 75 35 116 109 120v71h49v-71
c70 -5 106 -46 106 -118v-122h-59v124c0 42 -21 62 -65 62h-15c-44 0 -65 -20 -65 -62v-88c0 -38 13 -56 40 -77z" />
    <glyph glyph-name="sterling" unicode="&#xa3;" horiz-adv-x="369" 
d="M30 288v54h43v242c0 80 41 122 120 122h20c79 0 119 -41 119 -121v-122h-59v123c0 43 -21 64 -61 64h-18c-40 0 -61 -21 -61 -64v-244h134v-54h-134v-232h202v-56h-305v56h43v232h-43z" />
    <glyph glyph-name="Euro" unicode="&#x20ac;" horiz-adv-x="361" 
d="M26 428h40v156c0 80 41 122 122 122h21c81 0 121 -41 121 -121v-89h-59v90c0 43 -21 64 -63 64h-19c-42 0 -63 -21 -63 -64v-158h153v-44h-153v-58h153v-45h-153v-167c0 -43 21 -64 63 -64h21c42 0 63 21 63 64v97h59v-94c0 -81 -41 -123 -123 -123h-21
c-81 0 -122 42 -122 123v164h-40v45h40v58h-40v44z" />
    <glyph glyph-name="yen" unicode="&#xa5;" horiz-adv-x="327" 
d="M37 284h92l-109 416h60l84 -355l85 355h58l-110 -416h93v-43h-97v-57h97v-43h-97v-141h-59v141h-97v43h97v57h-97v43z" />
    <glyph glyph-name="cent" unicode="&#xa2;" horiz-adv-x="323" 
d="M227 425v81c0 39 -19 61 -60 61h-10c-41 0 -60 -21 -60 -61v-308c0 -40 19 -61 60 -61h11c40 0 60 21 60 61v99h57v-97c0 -70 -33 -110 -97 -116v-85h-50v84c-66 6 -98 46 -98 117v304c0 71 33 110 98 116v81h50v-81c64 -7 96 -47 96 -116v-79h-57z" />
    <glyph glyph-name="numbersign" unicode="#" horiz-adv-x="368" 
d="M285 702v-144l62 17v-61l-62 -16v-234l62 17v-60l-62 -17v-206h-54v191l-94 -25v-166h-54v151l-62 -16v60l62 16v234l-62 -16v60l62 16v199h54v-184l94 25v159h54zM137 458v-234l94 25v234z" />
    <glyph glyph-name="paragraph" unicode="&#xb6;" horiz-adv-x="335" 
d="M242 647h-52v-647h-6c-85 6 -141 55 -141 165v369c0 109 53 166 162 166h85v-700h-48v647z" />
    <glyph glyph-name="section" unicode="&#xa7;" horiz-adv-x="346" 
d="M112 408c-51 21 -68 43 -68 103v74c0 80 41 121 123 121h16c81 0 121 -40 121 -120v-83h-57v85c0 42 -21 63 -64 63h-16c-43 0 -65 -21 -65 -63v-83c0 -32 14 -42 41 -54l105 -45c41 -17 50 -32 50 -67v-10zM234 292c50 -21 67 -43 67 -103v-74c0 -80 -41 -121 -123 -121
h-15c-82 0 -122 40 -122 120v83h57v-85c0 -42 21 -63 65 -63h15c44 0 65 21 65 63v83c0 32 -14 42 -41 54l-105 45c-41 16 -50 32 -50 67v10z" />
    <glyph glyph-name="ordfeminine" unicode="&#xaa;" horiz-adv-x="229" 
d="M37 471v38c0 35 13 51 46 62l68 23v44c0 22 -11 33 -33 33h-6c-24 0 -35 -10 -35 -33v-28h-37v32c0 41 24 64 71 64h8c46 0 70 -23 70 -64v-225h-38v22c-21 -16 -36 -25 -59 -25h-2c-33 0 -53 16 -53 57zM101 450c16 0 31 7 50 23v86l-50 -17c-20 -8 -26 -16 -26 -35v-29
c0 -20 9 -28 26 -28z" />
    <glyph glyph-name="ordmasculine" unicode="&#xba;" horiz-adv-x="237" 
d="M126 670h-14c-24 0 -36 -11 -36 -37v-146c0 -26 12 -38 36 -38h14c23 0 35 12 35 38v146c0 26 -12 37 -35 37zM128 414h-19c-46 0 -71 23 -71 72v148c0 48 25 72 71 72h19c46 0 71 -24 71 -72v-148c0 -49 -25 -72 -71 -72z" />
    <glyph glyph-name="degree" unicode="&#xb0;" horiz-adv-x="261" 
d="M230 619v-176c0 -59 -30 -87 -83 -87h-32c-54 0 -83 28 -83 87v176c0 59 29 87 83 87h32c54 0 83 -28 83 -87zM183 448v165c0 31 -12 45 -40 45h-23c-29 0 -41 -14 -41 -45v-165c0 -30 12 -45 41 -45h22c28 0 41 15 41 45z" />
    <glyph glyph-name="percent" unicode="%" horiz-adv-x="473" 
d="M134 374h-16c-63 0 -84 30 -84 95v142c0 64 21 95 84 95h16c62 0 83 -31 83 -95v-142c0 -65 -21 -95 -83 -95zM339 319h16c63 0 83 -30 83 -94v-136c0 -64 -20 -95 -83 -95h-16c-62 0 -83 31 -83 95v136c0 64 21 94 83 94zM385 702l-129 -365l-118 -339h-48l129 364
l117 340h49zM131 657h-9c-32 0 -39 -15 -39 -50v-135c0 -35 7 -49 39 -49h10c31 0 36 14 36 49v135c0 35 -5 50 -37 50zM352 270h-10c-31 0 -37 -14 -37 -49v-128c0 -35 5 -50 37 -50h9c32 0 38 15 38 50v128c0 35 -5 49 -37 49z" />
    <glyph glyph-name="percent.alt" horiz-adv-x="473" 
d="M134 374h-16c-63 0 -84 30 -84 95v142c0 64 21 95 84 95h16c62 0 83 -31 83 -95v-142c0 -65 -21 -95 -83 -95zM339 319h16c63 0 83 -30 83 -94v-136c0 -64 -20 -95 -83 -95h-16c-62 0 -83 31 -83 95v136c0 64 21 94 83 94zM385 702l-129 -365l-118 -339h-48l129 364
l117 340h49zM131 657h-9c-32 0 -39 -15 -39 -50v-135c0 -35 7 -49 39 -49h10c31 0 36 14 36 49v135c0 35 -5 50 -37 50zM352 270h-10c-31 0 -37 -14 -37 -49v-128c0 -35 5 -50 37 -50h9c32 0 38 15 38 50v128c0 35 -5 49 -37 49z" />
    <glyph glyph-name="quotedbl" unicode="&#x22;" horiz-adv-x="221" 
d="M98 700l-32 -239h-37l13 239h56zM199 700l-33 -239h-37l14 239h56z" />
    <glyph glyph-name="quotesingle" unicode="'" horiz-adv-x="122" 
d="M100 700l-33 -239h-38l13 239h58z" />
    <glyph glyph-name="plus" unicode="+" horiz-adv-x="312" 
d="M130 213v116h-114v53h114v115h54v-115h114v-53h-114v-116h-54z" />
    <glyph glyph-name="minus" unicode="&#x2212;" horiz-adv-x="314" 
d="M16 383h282v-55h-282v55z" />
    <glyph glyph-name="divide" unicode="&#xf7;" horiz-adv-x="314" 
d="M16 382h282v-53h-282v53zM128 440v73h58v-73h-58zM128 197v73h58v-73h-58z" />
    <glyph glyph-name="equal" unicode="=" horiz-adv-x="314" 
d="M21 456h272v-53h-272v53zM21 308h272v-53h-272v53z" />
    <glyph glyph-name="multiply" unicode="&#xd7;" horiz-adv-x="314" 
d="M245 231l-88 86l-87 -87l-38 37l88 88l-87 87l38 38l87 -87l87 88l38 -38l-88 -88l88 -86z" />
    <glyph glyph-name="less" unicode="&#x3c;" horiz-adv-x="314" 
d="M15 392l272 98v-58l-223 -75l223 -73v-59l-272 94v73z" />
    <glyph glyph-name="greater" unicode="&#x3e;" horiz-adv-x="314" 
d="M27 490l272 -98v-73l-272 -94v59l223 73l-223 75v58z" />
    <glyph glyph-name="plusminus" unicode="&#xb1;" horiz-adv-x="314" 
d="M130 277v115h-113v53h113v115h55v-115h114v-53h-114v-115h-55zM17 210h280v-52h-280v52z" />
    <glyph glyph-name="underscore" unicode="_" horiz-adv-x="445" 
d="M4 -30h437v-51h-437v51z" />
    <glyph glyph-name="space" unicode=" " horiz-adv-x="120" 
 />
    <glyph glyph-name="uni00A0" unicode="&#xa0;" horiz-adv-x="120" 
 />
    <glyph glyph-name="emspace" unicode="&#x2003;" horiz-adv-x="1000" 
 />
    <glyph glyph-name="enspace" unicode="&#x2002;" horiz-adv-x="500" 
 />
    <glyph glyph-name="threeperemspace" unicode="&#x2004;" horiz-adv-x="333" 
 />
    <glyph glyph-name="fourperemspace" unicode="&#x2005;" horiz-adv-x="250" 
 />
    <glyph glyph-name="thinspace" unicode="&#x2009;" horiz-adv-x="133" 
 />
    <glyph glyph-name="hairspace" unicode="&#x200a;" horiz-adv-x="75" 
 />
    <glyph glyph-name="NUL" horiz-adv-x="0" 
 />
    <glyph glyph-name="hfjslug" horiz-adv-x="694" 
d="M644 -200h-208l-8 14h-163l-8 -14h-207v303c18 0 32 14 32 32c0 17 -14 32 -32 32v554h100l30 79h334l29 -79h101v-921zM400 563v-172h15v78h38v14h-38v66h43v14h-58zM184 563v-172h15v79h47v-79h15v172h-15v-79h-47v79h-15zM460 394c5 -2 14 -4 21 -4c20 0 31 11 31 36
v137h-16v-137c0 -16 -5 -22 -16 -22c-6 0 -15 3 -20 5v-15zM371 465l-13 3c-2 -9 -5 -21 -8 -30h-1l-16 31c13 12 23 26 23 42c0 17 -9 31 -27 31c-17 0 -28 -14 -28 -31c0 -15 6 -24 14 -39c-15 -12 -23 -28 -23 -47c0 -22 12 -37 29 -37c13 0 23 9 29 24h1l12 -24l12 6
l-17 32c5 12 9 25 13 39zM523 323v-46h8v12l8 8l15 -20h10l-20 26l18 20h-10l-20 -24h-1v24h-8zM488 292l10 -15h9l-12 17c5 2 10 6 10 14c0 9 -7 15 -17 15h-20v-46h8v15h12zM426 276c14 0 24 11 24 24c0 12 -10 24 -24 24s-24 -12 -24 -24c0 -13 10 -24 24 -24zM370 301
l-13 22h-9l18 -29v-17h8v17l18 29h-9zM193 323v-46h34v7h-26v13h23v7h-23v12h26v7h-34zM132 323v-46h8v32l25 -32h7v46h-8v-32l-25 32h-7zM241 323l14 -47h8l11 34h1l11 -34h8l14 47h-8l-10 -35h-1l-11 35h-7l-11 -35h-1l-10 35h-8zM327 479c-7 13 -12 22 -12 32
c0 11 6 19 14 19s13 -8 13 -19c0 -12 -5 -21 -15 -32zM342 423c-5 -13 -12 -21 -20 -21c-9 0 -16 10 -16 25c0 13 7 26 16 35zM487 299h-11v17h11c6 0 10 -3 10 -8s-4 -9 -10 -9zM426 283c-10 0 -16 8 -16 17c0 8 6 17 16 17s16 -9 16 -17c0 -9 -6 -17 -16 -17z" />
    <glyph glyph-name="f_f_i" unicode="&#xfb03;" horiz-adv-x="528" 
d="M58 537v74c0 66 31 99 97 99h31v-54h-29c-28 0 -41 -14 -41 -43v-76h67v-53h-67v-484h-58v484h-35v53h35zM249 537v74c0 66 31 99 97 99h31v-54h-29c-28 0 -41 -14 -41 -43v-76h67v-53h-67v-484h-58v484h-35v53h35zM425 601v76h60v-76h-60zM426 0v537h58v-537h-58z" />
    <glyph glyph-name="f_f_l" unicode="&#xfb04;" horiz-adv-x="528" 
d="M58 537v74c0 66 31 99 97 99h31v-54h-29c-28 0 -41 -14 -41 -43v-76h67v-53h-67v-484h-58v484h-35v53h35zM249 537v74c0 66 31 99 97 99h31v-54h-29c-28 0 -41 -14 -41 -43v-76h67v-53h-67v-484h-58v484h-35v53h35zM426 0v710h58v-710h-58z" />
    <glyph glyph-name="f_f" unicode="&#xfb00;" horiz-adv-x="382" 
d="M58 537v74c0 66 31 99 97 99h31v-54h-29c-28 0 -41 -14 -41 -43v-76h67v-53h-67v-484h-58v484h-35v53h35zM249 537v74c0 66 31 99 97 99h31v-54h-29c-28 0 -41 -14 -41 -43v-76h67v-53h-67v-484h-58v484h-35v53h35z" />
    <glyph glyph-name="fi" unicode="&#xfb01;" horiz-adv-x="337" 
d="M58 537v74c0 66 31 99 97 99h31v-54h-29c-28 0 -41 -14 -41 -43v-76h67v-53h-67v-484h-58v484h-35v53h35zM234 601v76h60v-76h-60zM235 0v537h58v-537h-58z" />
    <glyph glyph-name="fl" unicode="&#xfb02;" horiz-adv-x="337" 
d="M58 537v74c0 66 31 99 97 99h31v-54h-29c-28 0 -41 -14 -41 -43v-76h67v-53h-67v-484h-58v484h-35v53h35zM235 0v710h58v-710h-58z" />
    <glyph glyph-name="i.dot" horiz-adv-x="146" 
d="M43 601v76h60v-76h-60zM44 0v537h58v-537h-58z" />
    <glyph glyph-name="acute" unicode="&#xb4;" horiz-adv-x="500" 
d="M211 585l39 102h59l-60 -102h-38z" />
    <glyph glyph-name="hungarumlaut" unicode="&#x2dd;" horiz-adv-x="500" 
d="M175 585l35 102h55l-59 -102h-31zM252 585l36 102h55l-59 -102h-32z" />
    <glyph glyph-name="caron.alt" horiz-adv-x="500" 
d="M196 592v117h47l-19 -117h-28z" />
    <glyph glyph-name="grave" unicode="`" horiz-adv-x="500" 
d="M271 687l39 -102h-39l-60 102h60z" />
    <glyph glyph-name="circumflex" unicode="&#x2c6;" horiz-adv-x="500" 
d="M277 687l61 -102h-40l-48 61l-48 -61h-40l62 102h53z" />
    <glyph glyph-name="caron" unicode="&#x2c7;" horiz-adv-x="500" 
d="M338 687l-61 -102h-53l-62 102h40l48 -62l48 62h40z" />
    <glyph glyph-name="breve" unicode="&#x2d8;" horiz-adv-x="500" 
d="M168 657v27h43v-27c0 -25 13 -34 36 -34h6c23 0 36 9 36 34v27h43v-27c0 -52 -26 -75 -76 -75h-12c-50 0 -76 23 -76 75z" />
    <glyph glyph-name="tilde" unicode="&#x2dc;" horiz-adv-x="500" 
d="M195 681h3c18 0 27 -3 44 -16l31 -26c10 -8 14 -11 20 -11h2c8 0 10 4 10 14v39h40v-55c0 -27 -14 -41 -39 -41h-4c-18 0 -27 3 -44 17l-31 25c-10 8 -14 11 -20 11h-2c-8 0 -10 -4 -10 -14v-39h-39v55c0 27 14 41 39 41z" />
    <glyph glyph-name="macron" unicode="&#xaf;" horiz-adv-x="500" 
d="M159 650h182v-50h-182v50z" />
    <glyph glyph-name="dieresis" unicode="&#xa8;" horiz-adv-x="500" 
d="M280 585v84h50v-84h-50zM220 669v-84h-50v84h50z" />
    <glyph glyph-name="dotaccent" unicode="&#x2d9;" horiz-adv-x="500" 
d="M276 664v-79h-52v79h52z" />
    <glyph glyph-name="ring" unicode="&#x2da;" horiz-adv-x="500" 
d="M330 640v-5c0 -33 -18 -51 -61 -51h-38c-43 0 -61 18 -61 51v5c0 33 18 51 61 51h38c43 0 61 -18 61 -51zM309 635v5c0 22 -11 32 -43 32h-32c-32 0 -43 -10 -43 -32v-5c0 -22 11 -32 44 -32h31c32 0 43 10 43 32z" />
    <glyph glyph-name="acute.cap" horiz-adv-x="500" 
d="M211 745l45 82h59l-65 -82h-39z" />
    <glyph glyph-name="hungarumlaut.cap" horiz-adv-x="500" 
d="M174 745l42 82h55l-65 -82h-32zM252 745l42 82h55l-65 -82h-32z" />
    <glyph glyph-name="grave.cap" horiz-adv-x="500" 
d="M265 827l45 -82h-39l-66 82h60z" />
    <glyph glyph-name="circumflex.cap" horiz-adv-x="500" 
d="M277 835l65 -90h-40l-52 52l-52 -52h-40l66 90h53z" />
    <glyph glyph-name="caron.cap" horiz-adv-x="500" 
d="M342 835l-65 -90h-53l-66 90h40l52 -53l52 53h40z" />
    <glyph glyph-name="breve.cap" horiz-adv-x="500" 
d="M166 810v17h42v-13c0 -24 14 -32 37 -32h10c23 0 36 8 36 32v13h43v-17c0 -46 -26 -68 -76 -68h-16c-50 0 -76 22 -76 68z" />
    <glyph glyph-name="tilde.cap" horiz-adv-x="500" 
d="M191 836h4c17 0 27 -3 42 -13l39 -29c9 -6 14 -8 20 -8h2c9 0 11 4 11 14v36h39v-51c0 -26 -13 -40 -39 -40h-4c-17 0 -27 3 -42 13l-39 28c-9 6 -13 8 -20 8h-2c-9 0 -11 -4 -11 -14v-35h-39v51c0 26 13 40 39 40z" />
    <glyph glyph-name="macron.cap" horiz-adv-x="500" 
d="M159 801h182v-43h-182v43z" />
    <glyph glyph-name="dieresis.cap" horiz-adv-x="500" 
d="M280 745v69h51v-69h-51zM221 814v-69h-51v69h51z" />
    <glyph glyph-name="dotaccent.cap" horiz-adv-x="500" 
d="M273 809v-64h-52v64h52z" />
    <glyph glyph-name="ring.cap" horiz-adv-x="500" 
d="M342 798v-5c0 -32 -20 -49 -60 -49h-64c-40 0 -60 17 -60 49v5c0 32 20 49 60 49h64c40 0 60 -17 60 -49zM321 794v3c0 22 -12 31 -42 31h-58c-30 0 -42 -9 -42 -31v-3c0 -22 12 -31 42 -31h58c30 0 42 9 42 31z" />
    <glyph glyph-name="commaaccent" unicode="&#x326;" horiz-adv-x="500" 
d="M269 -45v-50c0 -29 -3 -45 -23 -71l-14 -18l-17 11l9 15c10 17 13 28 14 38h-18v75h49z" />
    <glyph glyph-name="commaaccent.alt" horiz-adv-x="500" 
d="M269 -45v-18c0 -33 -12 -67 -21 -85h-36c9 29 13 47 13 84v19h44z" />
    <glyph glyph-name="cedilla" unicode="&#xb8;" horiz-adv-x="500" 
d="M290 0l-23 -91h-53l39 91h37z" />
    <glyph glyph-name="ogonek" unicode="&#x2db;" horiz-adv-x="500" 
d="M260 10h41l-12 -23c-7 -12 -13 -25 -13 -34v-2c0 -9 4 -12 13 -12h26v-38h-38c-33 0 -46 14 -46 40v5c0 15 9 32 21 51z" />
    </font>
</defs>
</svg>
