<?xml version="1.0" encoding="UTF-8" standalone="no"?>
<svg width="237px" height="32px" viewBox="0 0 237 32" version="1.1" xmlns="http://www.w3.org/2000/svg" xmlns:xlink="http://www.w3.org/1999/xlink" xmlns:sketch="http://www.bohemiancoding.com/sketch/ns">
    <!-- Generator: Sketch 3.3.2 (12043) - http://www.bohemiancoding.com/sketch -->
    <title>Group</title>
    <desc>Created with Sketch.</desc>
    <defs></defs>
    <g id="Page-1" stroke="none" stroke-width="1" fill="none" fill-rule="evenodd" sketch:type="MSPage">
        <g id="Desktop-HD" sketch:type="MSArtboardGroup" transform="translate(-1166.000000, -25.000000)" fill="#010101">
            <g id="Group" sketch:type="MSLayerGroup" transform="translate(1166.000000, 25.000000)">
                <path d="M130.849393,16.1237736 L130.849393,24.0440755 C130.849393,29.5830943 127.754487,31.8726038 121.03989,31.7325283 L121.03989,28.210717 C124.425605,28.2547925 125.914714,26.8359245 125.914714,23.7675472 L125.914714,15.8490566 C125.914714,10.309434 129.013247,8.01992453 135.725426,8.15698113 L135.725426,11.6830189 C132.342735,11.6365283 130.849393,13.0566038 130.849393,16.1237736 M3.6807551,6.19290566 L3.6807551,8.19441509 L7.63176276,8.19441509 L7.63176276,9.78837736 L3.6807551,9.78837736 L3.6807551,31.6407547 L1.70736735,31.6407547 L1.70736735,9.78837736 L-8.8817842e-16,9.78837736 L-8.8817842e-16,8.19441509 L1.70736735,8.19441509 L1.70736735,6.10233962 C1.70736735,2.368 3.25572704,-0.0428679245 7.79197959,0.000603773585 L7.79197959,1.64166038 C4.48365306,1.55109434 3.6807551,3.28030189 3.6807551,6.19290566" id="Shape" sketch:type="MSShapeGroup"></path>
                <path d="M14.8898878,32 C11.3125179,32 8.80527551,29.9532075 8.80527551,25.7666415 L8.80527551,14.0655094 C8.80527551,9.88015094 11.3131224,7.83154717 14.8898878,7.83154717 C18.4648393,7.83154717 20.9732908,9.88015094 20.9732908,14.0655094 L20.9732908,25.7666415 C20.9732908,29.9532075 18.4654439,32 14.8898878,32 L14.8898878,32 Z M18.9992985,14.0655094 C18.9992985,11.109434 17.4497296,9.47079245 14.8898878,9.47079245 C12.3258138,9.47079245 10.7786633,11.109434 10.7786633,14.0655094 L10.7786633,25.7666415 C10.7786633,28.7239245 12.3264184,30.3655849 14.8898878,30.3655849 C17.449125,30.3655849 18.9992985,28.7239245 18.9992985,25.7666415 L18.9992985,14.0655094 L18.9992985,14.0655094 Z M25.2411046,31.6377358 L25.2411046,8.19260377 L27.2150969,8.19260377 L27.2150969,30.3438491 L34.3136097,30.3438491 L34.3136097,31.6377358 L25.2411046,31.6377358 Z M48.351023,31.6377358 L42.8516556,18.4434717 L39.2754949,23.7639245 L39.2754949,31.6377358 L37.3027117,31.6377358 L37.3027117,8.19260377 L39.2754949,8.19260377 L39.2754949,21.0282264 L47.7089464,8.19260377 L49.7379566,8.19260377 L44.0275867,16.677434 L50.3764056,31.6377358 L48.351023,31.6377358 Z M58.0643954,32 C54.4852117,32 51.9797832,29.9532075 51.9797832,25.7666415 L51.9797832,14.0655094 C51.9797832,9.88015094 54.4852117,7.83154717 58.0643954,7.83154717 C61.6387423,7.83154717 64.1465893,9.88015094 64.1465893,14.0655094 L64.1465893,20.1213585 L53.9531709,20.1213585 L53.9531709,25.7666415 C53.9531709,28.7239245 55.4985077,30.3655849 58.0637908,30.3655849 C60.6224235,30.3655849 62.1719923,28.7239245 62.1719923,25.7666415 L62.1719923,25.1290566 L64.1453801,25.1290566 L64.1453801,25.7666415 C64.1459847,29.9532075 61.6381378,32 58.0643954,32 L58.0643954,32 Z M62.1725969,14.0655094 C62.1725969,11.109434 60.6230281,9.47079245 58.0643954,9.47079245 C55.4991122,9.47079245 53.9537755,11.109434 53.9537755,14.0655094 L53.9537755,18.482717 L62.1732015,18.482717 L62.1732015,14.0655094 L62.1725969,14.0655094 Z M78.9820638,31.6377358 L78.9820638,14.4326038 C78.9820638,12.3369057 78.0231811,11.3358491 76.3678087,11.3358491 C74.7662449,11.3358491 73.7535536,12.3369057 73.7535536,14.4326038 L73.7535536,31.6377358 L69.217301,31.6377358 L69.217301,0.138867925 L73.7535536,0.138867925 L73.7535536,9.65132075 C74.2305765,8.60377358 75.9397577,7.82973585 77.4330995,7.82973585 C81.7577449,7.82973585 83.5165026,10.106566 83.5165026,14.2031698 L83.5165026,31.6377358 L78.9820638,31.6377358 L78.9820638,31.6377358 Z" id="Shape" sketch:type="MSShapeGroup"></path>
                <path d="M94.085977,32 C89.4934974,32 86.7184209,29.6796981 86.7184209,25.6307925 L86.7184209,14.2037736 C86.7184209,10.1542642 89.4928929,7.83275472 94.085977,7.83275472 C98.6748291,7.83275472 101.451115,10.1542642 101.451115,14.2037736 L101.451115,25.6307925 C101.451115,29.6796981 98.6748291,32 94.085977,32 L94.085977,32 Z M96.9112347,14.4326038 C96.9112347,12.3369057 95.7927398,11.3358491 94.085977,11.3358491 C92.3780051,11.3358491 91.258301,12.3369057 91.258301,14.4326038 L91.258301,22.0323019 L96.9118393,14.9301132 L96.9118393,14.4326038 L96.9112347,14.4326038 Z M96.9112347,17.8910189 L91.2576964,24.8567547 L91.2576964,25.4013585 C91.2576964,27.4976604 92.3774005,28.4956981 94.0853724,28.4956981 C95.7927398,28.4956981 96.9106301,27.4976604 96.9106301,25.4013585 L96.9106301,17.8910189 L96.9112347,17.8910189 Z M117.139668,31.6377358 L116.446806,29.9532075 C115.643908,31.1341887 113.832551,32 111.695319,32 C107.321097,32 104.91724,29.682717 104.91724,25.6307925 L104.91724,14.3468679 C104.91724,10.2961509 107.640926,7.97403774 112.230987,7.97403774 C116.820444,7.97403774 119.489112,10.2961509 119.489112,14.3468679 L119.489112,16.2988679 L114.90026,16.2988679 L114.90026,14.5756981 C114.90026,12.4806038 113.938959,11.5242264 112.230987,11.5242264 C110.522411,11.5242264 109.506696,12.4806038 109.506696,14.5756981 L109.506696,25.4019623 C109.506696,27.4982642 110.469207,28.4081509 112.177783,28.4081509 C113.884546,28.4081509 114.899656,27.4982642 114.899656,25.4019623 L114.899656,20.965434 L112.177783,20.965434 L112.177783,17.8970566 L119.489112,17.8970566 L119.489112,31.6377358 L117.139668,31.6377358 L117.139668,31.6377358 Z M148.942408,31.6377358 L144.404342,19.8448302 L142.64377,22.5032453 L142.64377,31.6377358 L138.055523,31.6377358 L138.055523,8.19260377 L142.64377,8.19260377 L142.64377,18.1162264 L142.751992,18.1162264 C201.352661,7.99360578e-15 143.284033,16.2457358 144.24473,14.7719245 L148.623184,8.19260377 L153.267658,8.19260377 L147.394653,16.965434 L153.586278,31.6377358 L148.942408,31.6377358 L148.942408,31.6377358 Z" id="Shape" sketch:type="MSShapeGroup"></path>
                <path d="M162.679944,31.8641509 C158.10802,31.8641509 155.33899,29.5529057 155.33899,25.5124528 L155.33899,14.1204528 C155.33899,10.0842264 158.107416,7.77056604 162.679944,7.77056604 C167.257309,7.77056604 170.024526,10.0842264 170.024526,14.1204528 L170.024526,25.5130566 C170.02513,29.5529057 167.257913,31.8641509 162.679944,31.8641509 L162.679944,31.8641509 Z M165.502783,14.3498868 C165.502783,12.2620377 164.385497,11.264 162.679944,11.264 C160.979832,11.264 159.863755,12.2620377 159.863755,14.3498868 L159.863755,25.2866415 C159.863755,27.3726792 160.979832,28.3695094 162.679944,28.3695094 C164.385497,28.3695094 165.502783,27.3726792 165.502783,25.2866415 L165.502783,14.3498868 L165.502783,14.3498868 Z M173.853406,31.501283 L173.853406,8.0434717 L178.427747,8.0434717 L178.427747,28.0072453 L185.239684,28.0072453 L185.239684,31.501283 L173.853406,31.501283 Z M194.336372,31.8641509 C189.757194,31.8641509 186.997232,29.5529057 186.997232,25.5124528 L186.997232,14.1204528 C186.997232,10.0842264 189.706408,7.77056604 194.283168,7.77056604 C198.85751,7.77056604 201.623518,10.0842264 201.623518,14.1204528 L201.623518,20.8845283 L191.515952,20.8845283 L191.515952,25.2866415 C191.515952,27.3726792 192.633842,28.3695094 194.336372,28.3695094 C196.038903,28.3695094 197.101776,27.3726792 197.101776,25.2866415 L197.101776,23.9698113 L201.623518,23.9698113 L201.623518,25.5130566 C201.622913,29.5529057 198.912528,31.8641509 194.336372,31.8641509 L194.336372,31.8641509 Z M197.049781,14.3498868 C197.049781,12.2620377 195.985699,11.264 194.283168,11.264 C192.580638,11.264 191.515952,12.2620377 191.515952,14.3498868 L191.515952,17.7986415 L197.049781,17.7986415 L197.049781,14.3498868 L197.049781,14.3498868 Z M214.657913,31.501283 L214.657913,14.3504906 C214.657913,12.2626415 213.701449,11.2633962 212.050309,11.2633962 C210.457209,11.2633962 209.443309,12.2632453 209.443309,14.3504906 L209.443309,31.501283 L204.924589,31.501283 L204.924589,8.13162264 L209.287929,8.13162264 L209.287929,9.58550943 C209.762533,8.54158491 211.571472,7.77056604 213.111972,7.77056604 C217.423921,7.77056604 219.179656,10.0407547 219.179656,14.1222642 L219.179656,31.5018868 L214.657913,31.5018868 L214.657913,31.501283 Z" id="Shape" sketch:type="MSShapeGroup"></path>
                <path d="M229.711041,31.8641509 C225.137908,31.8641509 222.370087,29.5529057 222.370087,25.5124528 L222.370087,14.1204528 C222.370087,10.0842264 225.082286,7.77056604 229.659046,7.77056604 C234.233992,7.77056604 237,10.0842264 237,14.1204528 L237,20.8845283 L226.893643,20.8845283 L226.893643,25.2866415 C226.893643,27.3726792 228.00851,28.3695094 229.711041,28.3695094 C231.413571,28.3695094 232.478258,27.3726792 232.478258,25.2866415 L232.478258,23.9698113 L237,23.9698113 L237,25.5130566 C237,29.5529057 234.285987,31.8641509 229.711041,31.8641509 L229.711041,31.8641509 Z M232.425658,14.3498868 C232.425658,12.2620377 231.363995,11.264 229.659651,11.264 C227.958934,11.264 226.894247,12.2620377 226.894247,14.3498868 L226.894247,17.7986415 L232.425658,17.7986415 L232.425658,14.3498868 L232.425658,14.3498868 Z" id="Shape" sketch:type="MSShapeGroup"></path>
            </g>
        </g>
    </g>
</svg>